<?xml version="1.0"?>
<svg xmlns="http://www.w3.org/2000/svg" xmlns:xlink="http://www.w3.org/1999/xlink" version="1.1" id="Capa_1" x="0px" y="0px" viewBox="0 0 511.9 511.9" style="enable-background:new 0 0 511.9 511.9;" xml:space="preserve" width="512px" height="512px" class=""><g><path style="fill:#F8F8F8;" d="M254.6,497.85c-134.2,0-243-108.8-243-243s108.8-243,243-243s243,108.8,243,243l0,0  C497.4,388.95,388.7,497.65,254.6,497.85z" data-original="#F8F8F8" class=""/><g>
	<circle style="fill:#EEEEEE;" cx="254.6" cy="254.85" r="183.7" data-original="#EEEEEE" class=""/>
	<path style="fill:#EEEEEE;" d="M2.6,16.05H0v-4h2.6c4.3,0,7.9-3.5,7.9-7.9l0,0v-2.5h3.9v2.6C14.4,10.75,9.1,16.05,2.6,16.05z" data-original="#EEEEEE" class=""/>
	<path style="fill:#EEEEEE;" d="M24.8,16.05h-2.5c-6.5,0-11.8-5.3-11.8-11.8v-2.6h3.9v2.6c0,4.3,3.5,7.9,7.9,7.9h2.6v3.9H24.8z" data-original="#EEEEEE" class=""/>
	<path style="fill:#EEEEEE;" d="M14.4,26.45h-3.9v-2.5c0-4.3-3.5-7.9-7.9-7.9l0,0H0v-4h2.6c6.5,0,11.8,5.3,11.8,11.8V26.45z" data-original="#EEEEEE" class=""/>
	<path style="fill:#EEEEEE;" d="M14.4,26.45h-3.9v-2.5c0-6.5,5.3-11.8,11.8-11.8h2.5v4h-2.5c-4.3,0-7.9,3.5-7.9,7.9V26.45z" data-original="#EEEEEE" class=""/>
</g><g>
	<path style="fill:#EDA380" d="M510,499.85h-2.6c-6.5,0-11.8-5.3-11.8-11.8v-2.6h4v2.6c0,4.3,3.5,7.9,7.9,7.9h2.6v3.9H510z" data-original="#75B0F4" class="" data-old_color="#F8B595"/>
	<path style="fill:#EDA380" d="M499.6,510.25h-4v-2.6c0-6.5,5.3-11.8,11.8-11.8h2.6v4h-2.6c-4.3,0-7.9,3.5-7.9,7.9L499.6,510.25z" data-original="#75B0F4" class="" data-old_color="#F8B595"/>
	<path style="fill:#EDA380" d="M487.7,499.85h-2.6v-4h2.6c4.3,0,7.9-3.5,7.9-7.9v-2.6h4v2.6   C499.6,494.55,494.3,499.75,487.7,499.85z" data-original="#75B0F4" class="" data-old_color="#F8B595"/>
	<path style="fill:#EDA380" d="M499.6,510.25h-4v-2.6c0-4.3-3.5-7.9-7.9-7.9h-2.6v-4h2.6c6.5,0,11.8,5.3,11.8,11.8L499.6,510.25   L499.6,510.25z" data-original="#75B0F4" class="" data-old_color="#F8B595"/>
	<path style="fill:#EDA380" d="M100.8,440.95h-2.6v-4h2.6c4.4,0,7.9-3.5,7.9-7.9v-2.6h4v2.6   C112.7,435.65,107.4,440.95,100.8,440.95z" data-original="#75B0F4" class="" data-old_color="#F8B595"/>
	<path style="fill:#EDA380" d="M123.1,440.95h-2.6c-6.5,0-11.8-5.3-11.8-11.8v-2.6h4v2.6c0,4.3,3.5,7.9,7.9,7.9h2.6v3.9H123.1z" data-original="#75B0F4" class="" data-old_color="#F8B595"/>
	<path style="fill:#EDA380" d="M112.7,451.35h-4v-2.6c0-4.4-3.5-7.9-7.9-7.9h-2.6v-4h2.6c6.5,0,11.8,5.3,11.8,11.8   C112.7,448.85,112.7,451.35,112.7,451.35z" data-original="#75B0F4" class="" data-old_color="#F8B595"/>
	<path style="fill:#EDA380" d="M112.7,451.35h-4v-2.6c0-6.5,5.3-11.8,11.8-11.8h2.6v4h-2.6c-4.3,0-7.9,3.5-7.9,7.9v2.5H112.7z" data-original="#75B0F4" class="" data-old_color="#F8B595"/>
</g><g>
	<path style="fill:#FFC335" d="M429,375.55h-2.6v-4h2.6c4.3,0,7.9-3.5,7.9-7.9v-2.6h4v2.6C440.9,370.25,435.6,375.55,429,375.55z" data-original="#FFC335" class="active-path"/>
	<path style="fill:#FFC335" d="M451.3,375.55h-2.6c-6.5,0-11.8-5.3-11.8-11.8v-2.6h4v2.6c0,4.3,3.5,7.9,7.9,7.9h2.6L451.3,375.55z" data-original="#FFC335" class="active-path"/>
	<path style="fill:#FFC335" d="M440.9,385.95h-4v-2.6c0-4.3-3.5-7.9-7.9-7.9h-2.6v-4h2.6c6.5,0,11.8,5.3,11.8,11.8v2.7H440.9z" data-original="#FFC335" class="active-path"/>
	<path style="fill:#FFC335" d="M440.9,385.95h-4v-2.6c0-6.5,5.3-11.8,11.8-11.8h2.6v4h-2.6c-4.3,0-7.9,3.5-7.9,7.9v2.5H440.9z" data-original="#FFC335" class="active-path"/>
	<path style="fill:#FFC335" d="M414.3,207.05c-4.9,0-8.8-4-8.8-8.9s4-8.8,8.9-8.8s8.8,4,8.8,8.8   C423.2,203.05,419.2,207.05,414.3,207.05z M414.3,193.25c-2.7,0-4.9,2.2-4.9,4.9s2.2,4.9,4.9,4.9s4.9-2.2,4.9-4.9   S417.1,193.25,414.3,193.25L414.3,193.25z" data-original="#FFC335" class="active-path"/>
</g><path style="fill:#EDA380" d="M272.9,423.15c-6.9,0-12.5-5.6-12.5-12.5s5.6-12.5,12.5-12.5s12.5,5.6,12.5,12.5l0,0  C285.4,417.55,279.8,423.05,272.9,423.15z M272.9,402.05c-4.7,0-8.5,3.8-8.5,8.5s3.8,8.5,8.5,8.5s8.5-3.8,8.5-8.5l0,0  C281.4,405.85,277.6,402.05,272.9,402.05z" data-original="#75B0F4" class="" data-old_color="#F8B595"/><g>
	<path style="fill:#FFC335" d="M91.6,310.85c-4.9,0-8.8-4-8.8-8.8c0-4.9,4-8.8,8.8-8.8c4.9,0,8.8,3.9,8.8,8.8   S96.5,310.85,91.6,310.85L91.6,310.85z M91.6,297.15c-2.7,0-4.9,2.2-4.9,4.9c0,2.7,2.2,4.9,4.9,4.9c2.7,0,4.9-2.2,4.9-4.9l0,0   C96.5,299.35,94.3,297.15,91.6,297.15z" data-original="#FFC335" class="active-path"/>
	<path style="fill:#FFC335" d="M247.7,40.25c-4.9,0-8.8-4-8.8-8.8s4-8.8,8.8-8.8c4.9,0,8.8,4,8.8,8.8   C256.6,36.25,252.6,40.25,247.7,40.25z M247.7,26.45c-2.7,0-4.9,2.2-4.9,4.9s2.2,4.9,4.9,4.9s4.9-2.2,4.9-4.9l0,0   C252.6,28.65,250.4,26.45,247.7,26.45L247.7,26.45z" data-original="#FFC335" class="active-path"/>
	<path style="fill:#FFC335" d="M68.4,209.45c-2.5,0-5-1.1-6.6-3.1c-1.7-1.9-4.7-2.1-6.6-0.4c-0.1,0.1-0.3,0.3-0.4,0.4   c-3.2,3.6-8.7,4-12.3,0.8c-0.3-0.3-0.6-0.5-0.8-0.8c-1.7-1.9-4.7-2.1-6.6-0.4c-0.1,0.1-0.3,0.3-0.4,0.4c-3.2,3.6-8.7,4-12.3,0.8   c-0.3-0.3-0.6-0.5-0.8-0.8l3.1-2.5c1.7,1.9,4.7,2.1,6.6,0.4c0.1-0.1,0.3-0.3,0.4-0.4c3.1-3.6,8.6-4,12.3-0.9   c0.3,0.3,0.6,0.6,0.9,0.9c1.7,1.9,4.7,2.1,6.6,0.3c0.1-0.1,0.2-0.2,0.3-0.3c3.1-3.6,8.6-4,12.3-0.9c0.3,0.3,0.6,0.6,0.9,0.9   c1.7,1.9,4.7,2.1,6.6,0.4c0.1-0.1,0.3-0.3,0.4-0.4l3.1,2.5C73.4,208.25,71,209.35,68.4,209.45z" data-original="#FFC335" class="active-path"/>
</g><path style="fill:#EDA380" d="M505.5,42.65c-2.6,0-5-1.1-6.6-3.1c-1.7-1.9-4.6-2.1-6.6-0.4c-0.2,0.1-0.3,0.3-0.4,0.4  c-3.2,3.6-8.7,4-12.4,0.8c-0.3-0.2-0.5-0.5-0.8-0.8c-1.7-1.9-4.7-2.1-6.6-0.4c-0.1,0.1-0.3,0.3-0.4,0.4c-3.2,3.6-8.7,4-12.4,0.8  c-0.3-0.2-0.5-0.5-0.8-0.8l3.1-2.5c1.7,1.9,4.6,2.1,6.6,0.4c0.2-0.1,0.3-0.3,0.4-0.4c3.2-3.6,8.7-4,12.3-0.8  c0.3,0.3,0.6,0.5,0.8,0.8c1.7,1.9,4.7,2.1,6.6,0.4c0.1-0.1,0.3-0.3,0.4-0.4c3.2-3.6,8.7-4,12.3-0.8c0.3,0.3,0.6,0.5,0.8,0.8  c1.7,1.9,4.7,2.1,6.6,0.4c0.1-0.1,0.3-0.3,0.4-0.4l3.1,2.5C510.4,41.45,508,42.65,505.5,42.65z" data-original="#75B0F4" class="" data-old_color="#F8B595"/><path style="fill:#FFC335" d="M331.9,455.75c-2.5,0-5-1.1-6.6-3.1c-1.7-1.9-4.6-2.1-6.6-0.4c-0.2,0.1-0.3,0.3-0.4,0.4  c-1.6,2-4,3.1-6.6,3.1l0,0c-2.5,0-5-1.1-6.6-3.1c-1.7-1.9-4.6-2.1-6.6-0.4c-0.2,0.1-0.3,0.3-0.4,0.4c-3.2,3.6-8.7,4-12.4,0.8  c-0.3-0.2-0.5-0.5-0.8-0.8l3.1-2.5c1.7,1.9,4.7,2.1,6.6,0.4c0.1-0.1,0.3-0.3,0.4-0.4c3.2-3.6,8.7-4,12.4-0.8  c0.3,0.2,0.5,0.5,0.8,0.8c0.9,1.1,2.1,1.7,3.5,1.7l0,0c1.3,0,2.6-0.6,3.5-1.7c3.2-3.6,8.7-4,12.4-0.8c0.3,0.2,0.5,0.5,0.8,0.8  c1.7,1.9,4.7,2.1,6.6,0.4c0.1-0.1,0.3-0.3,0.4-0.4l3.1,2.5C336.8,454.55,334.4,455.75,331.9,455.75z" data-original="#FFC335" class="active-path"/><g>
	<path style="fill:#EDA380" d="M127.6,157.35L127.6,157.35c-1.6,0-3.3-0.3-4.8-0.9l1.5-3.7c1,0.4,2.2,0.7,3.3,0.7V157.35z    M132.4,156.45l-1.5-3.7c1.1-0.4,2-1.1,2.8-1.9l2.8,2.8C135.3,154.85,134,155.75,132.4,156.45z M118.7,153.75   c-1.2-1.2-2.1-2.6-2.8-4.1l3.6-1.5c0.4,1.1,1.1,2,1.9,2.8L118.7,153.75z M139.3,149.55l-3.7-1.5c0.4-1.1,0.7-2.2,0.7-3.3l4-0.1v0.1   C140.2,146.45,139.9,148.05,139.3,149.55z M114.9,144.85L114.9,144.85c0-1.7,0.3-3.3,0.9-4.8l3.7,1.5c-0.4,1-0.6,2.2-0.6,3.3H114.9   z M135.5,141.35c-0.5-1.1-1.1-2-1.9-2.8l2.8-2.8c1.2,1.2,2.1,2.5,2.8,4.1L135.5,141.35z M121.4,138.65l-2.8-2.8   c1.2-1.2,2.5-2.1,4.1-2.8l1.5,3.6C123.1,137.15,122.2,137.85,121.4,138.65L121.4,138.65z M130.8,136.65c-1-0.4-2.1-0.6-3.3-0.6   l-0.1-4h0.1c1.6,0,3.2,0.3,4.7,0.9L130.8,136.65z" data-original="#75B0F4" class="" data-old_color="#F8B595"/>
	<path style="fill:#EDA380" d="M425.1,457.75L425.1,457.75v-1.9l0.4,1.9H425.1z M425.1,457.75c-1.7,0-3.3-0.3-4.8-0.9l1.5-3.7   c1,0.4,2.2,0.6,3.3,0.6V457.75z M429.9,456.85l-1.5-3.7c1.1-0.4,2-1.1,2.8-1.9l2.8,2.8C432.8,455.25,431.4,456.15,429.9,456.85   L429.9,456.85z M416.1,454.15c-1.2-1.2-2.1-2.5-2.8-4.1l3.7-1.5c0.4,1.1,1.1,2,1.9,2.8L416.1,454.15z M436.7,449.95l-3.7-1.5   c0.4-1.1,0.7-2.2,0.7-3.3l3.1-0.1h0.8C437.7,446.75,437.3,448.45,436.7,449.95L436.7,449.95z M412.4,445.25v-0.3   c0-1.6,0.3-3.1,0.9-4.6l3.7,1.5c-0.4,1-0.6,2.1-0.6,3.3L412.4,445.25z M433,441.75c-0.5-1-1.1-2-1.9-2.8l2.8-2.8   c1.2,1.2,2.1,2.5,2.8,4.1L433,441.75z M418.8,439.05l-2.8-2.8c1.2-1.2,2.5-2.1,4.1-2.8l1.6,3.6   C420.6,437.55,419.6,438.25,418.8,439.05L418.8,439.05z M428.2,437.05c-1-0.4-2.1-0.6-3.3-0.6l-0.1-4h0.1c1.6,0,3.2,0.3,4.7,0.9   L428.2,437.05z" data-original="#75B0F4" class="" data-old_color="#F8B595"/>
	<path style="fill:#EDA380" d="M425,105.85L425,105.85c-1.6,0-3.3-0.3-4.8-0.9l1.5-3.7c1,0.4,2.2,0.7,3.3,0.7V105.85z    M429.8,104.85l-1.5-3.7c1.1-0.4,2-1.1,2.8-1.9l2.8,2.8C432.8,103.25,431.4,104.25,429.8,104.85z M416.1,102.15   c-1.2-1.2-2.1-2.5-2.8-4.1l3.7-1.5c0.4,1.1,1.1,2,1.9,2.8L416.1,102.15z M436.7,98.05l-3.7-1.5c0.4-1.1,0.7-2.2,0.7-3.3l3.1-0.1   h0.8C437.6,94.75,437.3,96.45,436.7,98.05L436.7,98.05z M412.3,93.25L412.3,93.25c0-1.7,0.3-3.3,0.9-4.8l3.7,1.5   c-0.4,1-0.6,2.1-0.6,3.3H412.3z M432.9,89.75c-0.5-1-1.1-2-1.9-2.8l2.8-2.8c1.2,1.2,2.1,2.5,2.8,4.1L432.9,89.75z M418.8,87.05   l-2.8-2.8c1.2-1.2,2.5-2.1,4.1-2.8l1.5,3.7C420.5,85.65,419.6,86.25,418.8,87.05L418.8,87.05z M428.2,85.15c-1-0.4-2.1-0.6-3.3-0.6   l-0.1-4h0.1c1.6,0,3.2,0.3,4.7,0.9L428.2,85.15z" data-original="#75B0F4" class="" data-old_color="#F8B595"/>
</g><path style="fill:#FFC335" d="M29.3,488.35L29.3,488.35c-1.6,0-3.3-0.3-4.8-0.9l1.5-3.7c1,0.4,2.2,0.6,3.3,0.6V488.35z   M34.2,487.45l-1.5-3.7c1-0.4,2-1.1,2.8-1.9l2.8,2.8C37.1,485.85,35.7,486.75,34.2,487.45z M20.4,484.75c-1.2-1.2-2.1-2.6-2.8-4.1  l3.7-1.5c0.4,1.1,1.1,2,1.9,2.8L20.4,484.75z M41,480.55l-3.7-1.5c0.4-1.1,0.7-2.2,0.7-3.3l4-0.1v0.1  C41.9,477.35,41.6,479.05,41,480.55z M16.6,475.75L16.6,475.75c0-1.7,0.3-3.3,0.9-4.8l3.7,1.5c-0.4,1-0.6,2.1-0.6,3.3H16.6z   M37.3,472.35c-0.4-1.1-1.1-2-1.9-2.8l2.8-2.8c1.2,1.2,2.1,2.5,2.8,4.1L37.3,472.35z M23.1,469.65l-2.8-2.8c1.2-1.2,2.5-2.1,4.1-2.8  l1.5,3.6C24.8,468.15,23.9,468.85,23.1,469.65L23.1,469.65z M32.5,467.65c-1-0.4-2.1-0.6-3.3-0.6l-0.1-4h0.1c1.6,0,3.2,0.3,4.7,0.9  L32.5,467.65z" data-original="#FFC335" class="active-path"/><g>
	<rect x="38" y="51.15" style="fill:#EDA380" width="4" height="18.7" data-original="#75B0F4" class="" data-old_color="#F8B595"/>
	<rect x="30.6" y="58.55" style="fill:#EDA380" width="18.7" height="4" data-original="#75B0F4" class="" data-old_color="#F8B595"/>
</g><g>
	<path style="fill:#DDDDDD;" d="M322.3,249.55l-56.8-0.1l1.7-6.3c2.9-10.5,4.6-21.2,5.2-32.1c0.6-10.8-7.8-20.1-18.6-20.6   c-0.3,0-0.7,0-1,0h-3.6c-1.5,0-2.8,1.1-2.9,2.6l-2.2,18.2c-0.2,2-0.7,3.9-1.5,5.7l-8.6,20c-1.3,3-3.7,5.5-6.7,6.8l-36.3,15.8h-13.3   c-1.6,0-3,1.3-3,3v56.9c0,1.6,1.3,3,3,3h19.9l14.8,13c7.4,6.4,16.8,10,26.6,10h56.5c7.4,0,13.5-6,13.5-13.5c0-3.6-1.5-7.1-4.1-9.6   c7.4-0.9,12.6-7.7,11.6-15.1c-0.4-3-1.7-5.7-3.8-7.8h1.3c7.4,0,13.5-6,13.5-13.5c0-3.6-1.5-7.1-4.1-9.7c6.6-1,11.4-6.7,11.4-13.3   v-0.9C334.9,255.15,329.3,249.55,322.3,249.55C322.4,249.55,322.4,249.55,322.3,249.55z" data-original="#DDDDDD" class=""/>
	<polygon style="fill:#DDDDDD;" points="246.8,153.05 254.7,169.05 262.6,153.05 280.3,150.45 267.5,138.05 270.5,120.45    254.7,128.75 239,120.45 242,138.05 229.2,150.45  " data-original="#DDDDDD" class=""/>
	<polygon style="fill:#DDDDDD;" points="342.1,172.95 345.1,155.45 329.3,163.75 313.5,155.45 316.5,172.95 303.8,185.45    321.4,187.95 329.3,203.95 337.2,187.95 354.8,185.45  " data-original="#DDDDDD" class=""/>
	<polygon style="fill:#DDDDDD;" points="187.8,187.95 205.4,185.45 192.7,172.95 195.7,155.45 179.9,163.75 164.1,155.45    167.1,172.95 154.3,185.45 172,187.95 179.9,203.95  " data-original="#DDDDDD" class=""/>
</g><path style="fill:#FBD7C7" d="M314.6,331.85c0-6.3-5.1-11.5-11.5-11.5l0,0h7.7c6.3,0,11.5-5.1,11.5-11.4l0,0  c0-6.3-5.1-11.5-11.4-11.5h-0.1h10.9c6.3,0,11.5-5.1,11.5-11.5l0,0c0-6.3-5.1-11.5-11.5-11.5h7.4c6.3,0,11.5-5.1,11.5-11.5l0,0v-1  c0-5.8-4.7-10.5-10.5-10.5l0,0l-58.1-0.1c-0.5,0-1-0.4-1-1c0-0.1,0-0.2,0-0.3l2.1-7.6c2.9-10.3,4.6-21,5.1-31.7l0,0  c0.5-9.7-7-18-16.7-18.5c-0.3,0-0.6,0-0.9,0H257c-0.5,0-0.9,0.4-1,0.9l-2.2,18.2c-0.3,2.1-0.8,4.2-1.7,6.2l-8.6,20.1  c-1.5,3.5-4.3,6.3-7.8,7.8l-36.5,16c-0.1,0.1-0.3,0.1-0.4,0.1h-13.5c-0.5,0-1,0.4-1,1v56.9c0,0.5,0.4,1,1,1l0,0h20.3  c0.2,0,0.5,0.1,0.7,0.2l15.1,13.2c7,6.1,16,9.5,25.3,9.5h56.5C309.5,343.35,314.6,338.25,314.6,331.85L314.6,331.85z" data-original="#BBD7FF" class="" data-old_color="#F46523"/><g>
	<path style="fill:#F46523" d="M303.1,345.35h-56.5c-9.8,0-19.2-3.6-26.6-10l-14.8-13h-19.9c-1.6,0-3-1.3-3-3v-56.9   c0-1.6,1.3-3,3-3h13.4l36.3-15.9c3-1.3,5.4-3.7,6.7-6.8l8.6-20.1c0.8-1.8,1.3-3.7,1.5-5.7l2.2-18c0.2-1.5,1.5-2.6,2.9-2.6h3.6   c10.8,0,19.6,8.8,19.6,19.6c0,0.3,0,0.7,0,1c-0.6,10.9-2.3,21.6-5.2,32.1l-1.7,6.4l56.8,0.1c6.9,0,12.5,5.6,12.5,12.5v1   c0,6.6-4.9,12.3-11.4,13.3c5.3,5.2,5.5,13.7,0.3,19c-2.5,2.6-6,4.1-9.6,4.1h-1.3c5.2,5.3,5.2,13.8,0,19c-2.1,2.1-4.9,3.5-7.8,3.8   c5.3,5.2,5.4,13.7,0.2,19C310.2,343.85,306.7,345.35,303.1,345.35L303.1,345.35z M205.6,318.45c0.7,0,1.4,0.3,2,0.7l15.1,13.3   c6.6,5.8,15.2,9,24,9h56.5c5.2,0,9.5-4.3,9.5-9.5s-4.3-9.5-9.5-9.5h-1.9v-4h9.6c5.3,0,9.5-4.3,9.5-9.5c0-5.3-4.3-9.5-9.5-9.5h-9.6   v-4h20.5c5.2-0.2,9.4-4.5,9.2-9.8c-0.2-5-4.2-9.1-9.2-9.2h-20.5v-4H329c5.2,0,9.5-4.3,9.5-9.5v-1c0-4.7-3.8-8.5-8.5-8.5l-58.1-0.1   c-0.9,0-1.8-0.4-2.4-1.2c-0.6-0.7-0.8-1.7-0.5-2.6l2.1-7.6c2.8-10.2,4.5-20.7,5-31.2c0.5-8.6-6.1-16-14.8-16.5c-0.3,0-0.6,0-0.9,0   h-2.7l-2.1,17.4c-0.3,2.3-0.9,4.6-1.8,6.8l-8.6,20.1c-1.7,3.9-4.8,7.1-8.8,8.8l-36.5,16c-0.4,0.2-0.8,0.3-1.2,0.3h-12.6v54.9   L205.6,318.45z" data-original="#2E58AE" class="" data-old_color="#f46523"/>
	<polygon style="fill:#F46523" points="262.4,128.75 278.2,120.45 275.2,138.05 287.9,150.45 270.3,153.05 262.4,169.05    254.5,153.05 236.9,150.45 249.6,138.05 246.6,120.45  " data-original="#2E58AE" class="" data-old_color="#f46523"/>
</g><polygon style="fill:#A9400F" points="336.9,163.75 352.7,155.45 349.7,172.95 362.5,185.45 344.8,187.95 336.9,203.95 329,187.95   311.4,185.45 324.2,172.95 321.2,155.45 " data-original="#02C88B" class="" data-old_color="#CA521A"/><polygon style="fill:#FFE996;" points="162.9,184.55 162,185.45 162.9,185.55 " data-original="#FFE996"/><polygon style="fill:#FFE995;" points="163.7,185.65 163.7,183.75 162.9,184.55 162.9,185.55 " data-original="#FFE995" class=""/><polygon style="fill:#FFE894;" points="164.6,185.75 164.6,182.95 163.7,183.75 163.7,185.65 " data-original="#FFE894"/><polygon style="fill:#FFE893;" points="165.4,185.95 165.4,182.05 164.6,182.95 164.6,185.75 " data-original="#FFE893"/><polygon style="fill:#FFE892;" points="166.3,186.05 166.3,181.25 165.4,182.05 165.4,185.95 " data-original="#FFE892"/><polygon style="fill:#FFE791;" points="167.2,186.15 167.2,180.35 166.3,181.25 166.3,186.05 " data-original="#FFE791" class=""/><polygon style="fill:#FFE790;" points="167.2,180.35 167.2,186.15 168,186.35 168,179.55 " data-original="#FFE790"/><polygon style="fill:#FFE78F;" points="168,179.55 168,186.35 168.9,186.45 168.9,178.75 " data-original="#FFE78F"/><polygon style="fill:#FFE68E;" points="168.9,178.75 168.9,186.45 169.8,186.55 169.8,177.85 " data-original="#FFE68E" class=""/><polygon style="fill:#FFE68D;" points="169.8,177.85 169.8,186.55 170.6,186.65 170.6,177.05 " data-original="#FFE68D"/><polygon style="fill:#FFE68C;" points="170.6,177.05 170.6,186.65 171.5,186.85 171.5,176.15 " data-original="#FFE68C"/><g>
	<polygon style="fill:#FFE58B;" points="171.5,176.15 171.5,186.85 172.3,186.95 172.3,175.35  " data-original="#FFE58B" class=""/>
	<polygon style="fill:#FFE58B;" points="172.3,155.75 171.8,155.45 172.3,158.75  " data-original="#FFE58B" class=""/>
</g><g>
	<polygon style="fill:#FFE58A;" points="172.3,175.35 172.3,186.95 173.2,187.05 173.2,174.55  " data-original="#FFE58A"/>
	<polygon style="fill:#FFE58A;" points="173.2,163.85 173.2,156.15 172.3,155.75 172.3,158.75  " data-original="#FFE58A"/>
</g><g>
	<polygon style="fill:#FFE589;" points="174.1,168.85 174.1,156.65 173.2,156.15 173.2,163.85  " data-original="#FFE589" class=""/>
	<polygon style="fill:#FFE589;" points="173.2,174.55 173.2,187.05 174.1,187.15 174.1,173.65  " data-original="#FFE589" class=""/>
</g><polygon style="fill:#FFE488;" points="174.8,172.95 174.1,173.65 174.1,187.15 174.9,187.35 174.9,157.05 174.1,156.65   174.1,168.85 " data-original="#FFE488" class=""/><polygon style="fill:#FEE487;" points="175.8,187.45 175.8,157.55 174.9,157.05 174.9,187.35 " data-original="#FEE487" class=""/><polygon style="fill:#FEE386;" points="175.8,157.55 175.8,187.45 176.7,187.55 176.7,157.95 " data-original="#FEE386"/><polygon style="fill:#FEE385;" points="176.7,157.95 176.7,187.55 177.5,187.65 177.5,158.45 " data-original="#FEE385" class=""/><polygon style="fill:#FEE384;" points="177.5,158.45 177.5,187.65 178.4,187.85 178.4,158.85 " data-original="#FEE384"/><polygon style="fill:#FEE283;" points="178.4,158.85 178.4,187.85 179.2,187.95 179.2,159.35 " data-original="#FEE283" class=""/><polygon style="fill:#FEE282;" points="179.2,159.35 179.2,187.95 179.7,187.95 180.1,188.85 180.1,159.75 " data-original="#FEE282" class=""/><polygon style="fill:#FEE281;" points="180.1,159.75 180.1,188.85 181,190.65 181,160.25 " data-original="#FEE281" class=""/><polygon style="fill:#FEE180;" points="181,160.25 181,190.65 181.8,192.35 181.8,160.65 " data-original="#FEE180" class=""/><polygon style="fill:#FEE17F;" points="181.8,160.65 181.8,192.35 182.7,194.15 182.7,161.15 " data-original="#FEE17F"/><polygon style="fill:#FEE17E;" points="182.7,161.15 182.7,194.15 183.5,195.85 183.5,161.55 " data-original="#FEE17E" class=""/><polygon style="fill:#FEE07D;" points="183.5,161.55 183.5,195.85 184.4,197.65 184.4,162.05 " data-original="#FEE07D"/><polygon style="fill:#FEE07C;" points="184.4,197.65 185.3,199.35 185.3,162.55 184.4,162.05 " data-original="#FEE07C" class=""/><polygon style="fill:#FEE07B;" points="185.3,162.55 185.3,199.35 186.1,201.15 186.1,162.95 " data-original="#FEE07B"/><polygon style="fill:#FEDF7A;" points="186.1,162.95 186.1,201.15 187,202.85 187,163.45 " data-original="#FEDF7A" class=""/><polygon style="fill:#FEDF79;" points="187.8,163.55 187.5,163.75 187,163.45 187,202.85 187.5,203.95 187.8,203.35 " data-original="#FEDF79"/><polygon style="fill:#FEDF77;" points="188.7,201.65 188.7,163.05 187.8,163.55 187.8,203.35 " data-original="#FEDF77" class=""/><polygon style="fill:#FEDE76;" points="189.6,199.85 189.6,162.65 188.7,163.05 188.7,201.65 " data-original="#FEDE76"/><polygon style="fill:#FEDE75;" points="190.4,198.15 190.4,162.15 189.6,162.65 189.6,199.85 " data-original="#FEDE75" class=""/><polygon style="fill:#FEDE74;" points="191.3,196.35 191.3,161.75 190.4,162.15 190.4,198.15 " data-original="#FEDE74"/><polygon style="fill:#FEDD73;" points="192.1,194.65 192.1,161.25 191.3,161.75 191.3,196.35 " data-original="#FEDD73" class=""/><polygon style="fill:#FEDD72;" points="193,192.95 193,160.85 192.1,161.25 192.1,194.65 " data-original="#FEDD72" class=""/><polygon style="fill:#FEDD71;" points="193.9,191.15 193.9,160.35 193,160.85 193,192.95 " data-original="#FEDD71"/><polygon style="fill:#FEDC70;" points="193.9,160.35 193.9,191.15 194.7,189.35 194.7,159.95 " data-original="#FEDC70" class=""/><polygon style="fill:#FEDC6F;" points="194.7,159.95 194.7,189.35 195.4,187.95 195.6,187.95 195.6,159.45 " data-original="#FEDC6F"/><polygon style="fill:#FEDC6E;" points="195.6,159.45 195.6,187.95 196.5,187.85 196.5,159.05 " data-original="#FEDC6E" class=""/><polygon style="fill:#FEDB6D;" points="196.5,159.05 196.5,187.85 197.3,187.75 197.3,158.55 " data-original="#FEDB6D"/><polygon style="fill:#FEDB6C;" points="197.3,158.55 197.3,187.75 198.2,187.55 198.2,158.15 " data-original="#FEDB6C" class=""/><polygon style="fill:#FEDB6B;" points="198.2,158.15 198.2,187.55 199,187.45 199,157.65 " data-original="#FEDB6B" class=""/><polygon style="fill:#FEDA6A;" points="199,157.65 199,187.45 199.9,187.35 199.9,157.25 " data-original="#FEDA6A" class=""/><polygon style="fill:#FDDA69;" points="200.8,156.75 199.9,157.25 199.9,187.35 200.8,187.25 200.8,173.45 200.3,172.95   200.8,170.35 " data-original="#FDDA69"/><g>
	<polygon style="fill:#FDD968;" points="201.6,165.35 201.6,156.25 200.8,156.75 200.8,170.35  " data-original="#FDD968"/>
	<polygon style="fill:#FDD968;" points="201.6,187.05 201.6,174.25 200.8,173.45 200.8,187.25  " data-original="#FDD968"/>
</g><g>
	<polygon style="fill:#FDD967;" points="202.5,160.35 202.5,155.85 201.6,156.25 201.6,165.35  " data-original="#FDD967" class=""/>
	<polygon style="fill:#FDD967;" points="202.5,186.95 202.5,175.05 201.6,174.25 201.6,187.05  " data-original="#FDD967" class=""/>
</g><g>
	<polygon style="fill:#FDD966;" points="203.3,186.85 203.3,175.95 202.5,175.05 202.5,186.95  " data-original="#FDD966"/>
	<polygon style="fill:#FDD966;" points="203.3,155.45 202.5,155.85 202.5,160.35  " data-original="#FDD966"/>
</g><polygon style="fill:#FDD865;" points="203.4,175.95 203.4,186.85 204.2,186.75 204.2,176.75 " data-original="#FDD865"/><polygon style="fill:#FDD864;" points="204.2,176.75 204.2,186.75 205.1,186.55 205.1,177.65 " data-original="#FDD864"/><polygon style="fill:#FDD863;" points="205.1,177.65 205.1,186.55 205.9,186.45 205.9,178.45 " data-original="#FDD863"/><polygon style="fill:#FDD762;" points="205.9,178.45 205.9,186.45 206.8,186.35 206.8,179.25 " data-original="#FDD762"/><polygon style="fill:#FDD761;" points="206.8,179.25 206.8,186.35 207.7,186.25 207.7,180.15 " data-original="#FDD761"/><polygon style="fill:#FDD760;" points="207.7,180.15 207.7,186.25 208.5,186.05 208.5,180.95 " data-original="#FDD760"/><polygon style="fill:#FDD65F;" points="208.5,180.95 208.5,186.05 209.4,185.95 209.4,181.85 " data-original="#FDD65F"/><polygon style="fill:#FDD65E;" points="209.4,181.85 209.4,185.95 210.2,185.85 210.2,182.65 " data-original="#FDD65E"/><polygon style="fill:#FDD65D;" points="210.2,182.65 210.2,185.85 211.1,185.75 211.1,183.45 " data-original="#FDD65D" class=""/><polygon style="fill:#FDD55C;" points="211.1,185.75 212,185.55 212,184.35 211.1,183.45 " data-original="#FDD55C" class=""/><polygon style="fill:#FDD55B" points="212,184.35 212,185.55 213.1,185.45 " data-original="#FDD55B" class=""/></g> </svg>
