<?xml version="1.0"?>
<svg xmlns="http://www.w3.org/2000/svg" height="512px" viewBox="0 -96 464 464" width="512px" class=""><g><path d="m24 16v240c0 8.800781 7.199219 16 16 16h408c8.800781 0 16-7.199219 16-16v-240zm0 0" fill="#239172" data-original="#239172" class="" style="fill:#F58220" data-old_color="#f58220"/><path d="m416 240h-400c-8.800781 0-16-7.199219-16-16v-224h432v224c0 8.800781-7.199219 16-16 16zm0 0" fill="#e9e9e9" data-original="#E9E9E9" class=""/><g fill="#bfbfbf"><path d="m24 32h32v16h-32zm0 0" data-original="#000000" class="active-path" style="fill:#8E8B8B" data-old_color="#C5C4C4"/><path d="m24 64h32v16h-32zm0 0" data-original="#000000" class="active-path" style="fill:#8E8B8B" data-old_color="#C5C4C4"/><path d="m24 96h32v16h-32zm0 0" data-original="#000000" class="active-path" style="fill:#8E8B8B" data-old_color="#C5C4C4"/><path d="m24 128h32v16h-32zm0 0" data-original="#000000" class="active-path" style="fill:#8E8B8B" data-old_color="#C5C4C4"/><path d="m24 160h32v16h-32zm0 0" data-original="#000000" class="active-path" style="fill:#8E8B8B" data-old_color="#C5C4C4"/><path d="m80 32h56v16h-56zm0 0" data-original="#000000" class="active-path" style="fill:#8E8B8B" data-old_color="#C5C4C4"/><path d="m80 64h56v16h-56zm0 0" data-original="#000000" class="active-path" style="fill:#8E8B8B" data-old_color="#C5C4C4"/><path d="m80 96h56v16h-56zm0 0" data-original="#000000" class="active-path" style="fill:#8E8B8B" data-old_color="#C5C4C4"/><path d="m80 128h56v16h-56zm0 0" data-original="#000000" class="active-path" style="fill:#8E8B8B" data-old_color="#C5C4C4"/><path d="m80 160h56v16h-56zm0 0" data-original="#000000" class="active-path" style="fill:#8E8B8B" data-old_color="#C5C4C4"/><path d="m160 32h136v16h-136zm0 0" data-original="#000000" class="active-path" style="fill:#8E8B8B" data-old_color="#C5C4C4"/><path d="m160 64h136v16h-136zm0 0" data-original="#000000" class="active-path" style="fill:#8E8B8B" data-old_color="#C5C4C4"/><path d="m160 96h136v16h-136zm0 0" data-original="#000000" class="active-path" style="fill:#8E8B8B" data-old_color="#C5C4C4"/><path d="m160 128h136v16h-136zm0 0" data-original="#000000" class="active-path" style="fill:#8E8B8B" data-old_color="#C5C4C4"/><path d="m160 160h136v16h-136zm0 0" data-original="#000000" class="active-path" style="fill:#8E8B8B" data-old_color="#C5C4C4"/><path d="m320 32h48v16h-48zm0 0" data-original="#000000" class="active-path" style="fill:#8E8B8B" data-old_color="#C5C4C4"/><path d="m320 64h48v16h-48zm0 0" data-original="#000000" class="active-path" style="fill:#8E8B8B" data-old_color="#C5C4C4"/><path d="m320 96h48v16h-48zm0 0" data-original="#000000" class="active-path" style="fill:#8E8B8B" data-old_color="#C5C4C4"/><path d="m320 160h48v16h-48zm0 0" data-original="#000000" class="active-path" style="fill:#8E8B8B" data-old_color="#C5C4C4"/><path d="m392 32h16v16h-16zm0 0" data-original="#000000" class="active-path" style="fill:#8E8B8B" data-old_color="#C5C4C4"/><path d="m392 64h16v16h-16zm0 0" data-original="#000000" class="active-path" style="fill:#8E8B8B" data-old_color="#C5C4C4"/><path d="m392 96h16v16h-16zm0 0" data-original="#000000" class="active-path" style="fill:#8E8B8B" data-old_color="#C5C4C4"/><path d="m392 128h16v16h-16zm0 0" data-original="#000000" class="active-path" style="fill:#8E8B8B" data-old_color="#C5C4C4"/><path d="m320 128h48v16h-48zm0 0" data-original="#000000" class="active-path" style="fill:#8E8B8B" data-old_color="#C5C4C4"/><path d="m320 192h88v16h-88zm0 0" data-original="#000000" class="active-path" style="fill:#8E8B8B" data-old_color="#C5C4C4"/><path d="m392 160h16v16h-16zm0 0" data-original="#000000" class="active-path" style="fill:#8E8B8B" data-old_color="#C5C4C4"/></g></g> </svg>
