<!DOCTYPE svg PUBLIC "-//W3C//DTD SVG 20010904//EN" "http://www.w3.org/TR/2001/REC-SVG-20010904/DTD/svg10.dtd">
<svg version="1.0" xmlns="http://www.w3.org/2000/svg" width="128px" height="128px" viewBox="0 0 1280 1280" preserveAspectRatio="xMidYMid meet">
<g id="layer101" fill="#f46523" stroke="none">
 <path d="M482 1265 c-30 -7 -92 -32 -140 -55 -123 -61 -214 -154 -275 -281 -54 -112 -67 -170 -67 -292 1 -119 19 -191 75 -302 l45 -90 0 -122 0 -123 65 0 65 0 0 40 c0 39 1 40 34 40 18 0 58 -11 87 -25 85 -38 166 -55 266 -55 123 0 180 13 292 67 131 63 221 153 284 284 25 52 50 118 56 147 16 77 13 222 -5 303 -14 64 -14 73 0 110 42 105 -10 308 -68 260 -13 -11 -12 -18 10 -58 62 -117 1 -264 -129 -312 -131 -49 -287 68 -287 216 0 155 185 262 325 187 44 -23 49 -24 64 -9 15 15 14 18 -12 40 -52 46 -179 60 -256 29 -37 -14 -46 -14 -110 0 -83 19 -244 20 -319 1z m128 -315 l0 -280 -280 0 -280 0 0 23 c0 49 32 154 67 221 87 167 298 310 466 315 l27 1 0 -280z m159 268 l50 -11 -24 -32 c-82 -106 -71 -260 25 -355 95 -96 249 -107 355 -25 l32 24 11 -50 c7 -28 12 -61 12 -75 l0 -24 -280 0 -280 0 0 280 0 280 24 0 c14 0 47 -5 75 -12z m-159 -888 l0 -280 -27 0 c-72 0 -243 67 -243 94 0 12 10 16 40 16 l40 0 0 40 0 40 40 0 40 0 0 45 0 45 40 0 40 0 0 105 0 105 -230 0 -230 0 -1 -87 -1 -88 -20 45 c-26 55 -48 135 -48 173 l0 27 280 0 280 0 0 -280z m232 253 c27 -26 28 -26 48 -8 11 10 17 22 14 26 -3 5 19 9 48 9 l53 0 93 -93 93 -94 -17 -37 -18 -37 -111 111 -111 111 -19 -21 c-19 -21 -18 -21 94 -134 l114 -114 -22 -31 c-12 -17 -23 -31 -24 -31 -1 0 -85 83 -187 185 l-185 185 55 0 c45 0 59 -4 82 -27z m388 0 c0 -16 -5 -45 -11 -67 l-11 -39 -59 59 c-32 32 -59 62 -59 66 0 4 32 8 70 8 70 0 70 0 70 -27z m-371 -197 l183 -183 -32 -23 c-30 -21 -32 -21 -51 -5 -18 17 -20 17 -39 0 -18 -16 -19 -20 -5 -35 13 -15 11 -18 -22 -34 l-36 -17 -94 93 -93 93 0 55 0 55 105 -105 c104 -103 104 -104 125 -85 l21 19 -126 126 -125 125 0 53 c0 28 1 52 3 52 1 0 85 -83 186 -184z m-659 -116 c0 -189 -2 -220 -15 -220 -13 0 -15 31 -15 220 0 189 2 220 15 220 13 0 15 -31 15 -220z m80 40 c0 -153 -2 -180 -15 -180 -13 0 -15 27 -15 180 0 153 2 180 15 180 13 0 15 -27 15 -180z m90 40 c0 -118 -2 -140 -15 -140 -13 0 -15 22 -15 140 0 118 2 140 15 140 13 0 15 -22 15 -140z m80 40 c0 -82 -3 -100 -15 -100 -12 0 -15 18 -15 100 0 82 3 100 15 100 12 0 15 -18 15 -100z m80 45 c0 -42 -3 -55 -15 -55 -12 0 -15 13 -15 55 0 42 3 55 15 55 12 0 15 -13 15 -55z m214 -304 l59 -59 -39 -11 c-22 -6 -51 -11 -66 -11 -28 0 -28 0 -28 70 0 39 4 70 8 70 4 0 34 -27 66 -59z"/>
 <path d="M442 1028 c-44 -22 -41 -96 4 -117 21 -9 34 -9 56 0 49 20 51 95 3 117 -30 14 -33 14 -63 0z m48 -58 c0 -5 -7 -10 -15 -10 -8 0 -15 5 -15 10 0 6 7 10 15 10 8 0 15 -4 15 -10z"/>
 <path d="M259 1014 c-11 -13 5 -33 116 -144 123 -123 130 -129 147 -113 18 16 13 23 -109 145 -70 70 -131 128 -134 128 -4 0 -12 -7 -20 -16z"/>
 <path d="M274 862 c-26 -17 -36 -53 -24 -83 13 -32 45 -45 84 -35 32 8 52 56 35 88 -15 30 -28 38 -59 38 -14 0 -30 -4 -36 -8z m46 -57 c0 -8 -4 -15 -10 -15 -5 0 -10 7 -10 15 0 8 5 15 10 15 6 0 10 -7 10 -15z"/>
 <path d="M990 1182 c0 -10 -13 -28 -29 -39 -15 -12 -31 -33 -33 -47 -5 -23 -2 -26 23 -26 19 0 29 5 29 14 0 23 40 31 58 12 23 -23 6 -46 -47 -64 -58 -19 -79 -64 -56 -118 8 -20 24 -38 35 -41 13 -3 20 -14 20 -29 0 -19 5 -24 25 -24 18 0 25 5 25 19 0 11 14 33 30 49 17 17 30 38 30 46 0 23 -42 20 -63 -4 -14 -17 -21 -19 -38 -10 -34 19 -20 52 29 70 74 26 93 90 42 142 -16 16 -30 38 -30 49 0 14 -7 19 -25 19 -17 0 -25 -5 -25 -18z"/>
 <path d="M820 1015 c0 -20 5 -25 25 -25 20 0 25 5 25 25 0 20 -5 25 -25 25 -20 0 -25 -5 -25 -25z"/>
 <path d="M1150 1015 c0 -20 5 -25 25 -25 20 0 25 5 25 25 0 20 -5 25 -25 25 -20 0 -25 -5 -25 -25z"/>
 </g>

</svg>