<!DOCTYPE svg PUBLIC "-//W3C//DTD SVG 20010904//EN" "http://www.w3.org/TR/2001/REC-SVG-20010904/DTD/svg10.dtd">
<svg version="1.0" xmlns="http://www.w3.org/2000/svg" width="128px" height="128px" viewBox="0 0 1280 1280" preserveAspectRatio="xMidYMid meet">
<g id="layer101" fill="#f46523" stroke="none">
 <path d="M832 1265 c-54 -23 -98 -63 -123 -109 -21 -41 -24 -43 -43 -30 -21 14 -101 19 -130 8 -14 -5 -16 -38 -16 -265 l0 -260 78 3 77 3 3 165 c3 163 3 165 20 130 14 -28 18 -75 22 -240 l5 -205 75 0 75 0 3 153 c2 134 5 153 18 148 9 -3 18 -6 20 -6 2 0 4 -94 4 -208 0 -148 3 -211 12 -220 12 -12 104 -17 132 -6 14 5 16 36 16 243 l0 237 34 31 c50 48 76 111 76 185 -1 152 -108 258 -260 258 -36 -1 -80 -7 -98 -15z m189 -68 c79 -42 122 -131 105 -220 -7 -40 -65 -111 -109 -134 -83 -43 -197 -7 -251 79 -103 168 81 367 255 275z m-401 -327 c0 -193 -1 -200 -20 -200 -19 0 -20 7 -20 200 0 193 1 200 20 200 19 0 20 -7 20 -200z m200 -217 c0 -126 -1 -133 -20 -133 -19 0 -20 7 -20 145 0 143 0 145 20 133 18 -12 20 -24 20 -145z m200 -73 c0 -183 -1 -190 -20 -190 -19 0 -20 7 -20 190 0 183 1 190 20 190 19 0 20 -7 20 -190z"/>
 <path d="M913 1193 c-4 -10 -18 -26 -31 -37 -47 -37 -51 -96 -6 -96 17 0 25 7 30 26 8 31 49 31 49 -1 0 -14 -10 -22 -38 -28 -45 -11 -67 -40 -69 -92 -1 -31 4 -43 29 -64 16 -14 33 -34 36 -43 9 -26 44 -22 53 5 4 12 17 32 30 44 29 26 33 80 8 90 -12 4 -26 -5 -45 -28 -21 -26 -31 -31 -39 -23 -21 21 -7 48 30 55 77 16 92 88 34 162 -39 50 -60 58 -71 30z"/>
 <path d="M112 1013 l3 -118 75 0 75 0 0 115 0 115 -78 3 -78 3 3 -118z m98 -3 c0 -53 -2 -60 -20 -60 -18 0 -20 7 -20 60 0 53 2 60 20 60 18 0 20 -7 20 -60z"/>
 <path d="M314 1117 c-2 -7 -3 -109 -2 -227 l3 -215 78 -3 77 -3 0 231 0 230 -75 0 c-52 0 -77 -4 -81 -13z m96 -217 c0 -163 -1 -170 -20 -170 -19 0 -20 7 -20 170 0 163 1 170 20 170 19 0 20 -7 20 -170z"/>
 <path d="M97 773 c-4 -3 -7 -13 -7 -22 0 -16 508 -531 523 -531 5 0 33 23 63 52 l55 52 132 -132 132 -132 -47 0 c-62 0 -78 -7 -78 -36 0 -24 0 -24 115 -24 l115 0 0 115 c0 115 0 115 -24 115 -29 0 -36 -16 -36 -78 l0 -47 -148 148 c-81 81 -154 147 -162 147 -9 0 -38 -23 -65 -50 l-49 -50 -241 240 c-222 221 -259 252 -278 233z"/>
 </g>

</svg>