<!DOCTYPE svg PUBLIC "-//W3C//DTD SVG 20010904//EN" "http://www.w3.org/TR/2001/REC-SVG-20010904/DTD/svg10.dtd">
<svg version="1.0" xmlns="http://www.w3.org/2000/svg" width="128px" height="128px" viewBox="0 0 1280 1280" preserveAspectRatio="xMidYMid meet">
<g id="layer101" fill="#f46523" stroke="none">
 <path d="M76 1264 c-8 -20 -8 -668 0 -688 5 -13 23 -16 94 -16 59 0 90 4 92 12 3 8 33 -1 91 -26 81 -35 94 -37 167 -34 50 2 80 -1 80 -7 0 -6 -18 -102 -40 -215 -29 -150 -36 -207 -28 -217 15 -19 561 -19 576 0 9 10 1 67 -28 216 -22 112 -40 208 -40 214 0 7 18 12 44 12 33 0 52 7 70 24 l26 24 0 253 0 253 -42 41 c-24 23 -69 55 -102 72 -99 50 -160 58 -483 58 -286 0 -293 0 -293 20 0 19 -7 20 -89 20 -72 0 -90 -3 -95 -16z m134 -344 l0 -310 -40 0 -40 0 0 310 0 310 40 0 40 0 0 -310z m645 260 c130 -19 275 -108 275 -170 l0 -28 -55 30 c-53 28 -130 47 -266 63 -55 7 -56 6 -61 -19 -6 -28 -9 -27 127 -47 44 -6 100 -18 125 -26 60 -21 130 -70 130 -92 0 -16 -6 -14 -58 11 -53 26 -132 45 -268 63 -50 6 -52 6 -56 -20 -6 -31 -9 -30 102 -45 47 -6 108 -17 135 -25 65 -18 145 -71 145 -95 0 -17 -6 -16 -65 12 -46 21 -102 36 -187 49 -67 10 -123 17 -124 16 0 -1 -4 -13 -7 -27 l-6 -26 118 -17 c126 -18 174 -34 233 -76 34 -23 38 -30 38 -72 0 -52 -13 -69 -51 -69 -31 0 -42 12 -58 62 -20 61 -41 68 -201 68 -161 0 -182 -7 -202 -71 -17 -57 -27 -62 -120 -57 -69 4 -96 11 -160 41 l-78 36 0 271 0 270 263 0 c144 0 294 -5 332 -10z m91 -538 c6 -4 25 -83 43 -177 18 -93 34 -177 36 -185 3 -9 -12 -25 -39 -41 -31 -19 -48 -39 -62 -73 l-19 -46 -85 0 -85 0 -19 46 c-14 34 -31 54 -62 73 -27 16 -42 32 -39 41 2 8 18 92 36 185 18 94 37 173 43 177 6 4 63 8 126 8 63 0 120 -4 126 -8z m103 -499 c1 -20 -4 -23 -39 -23 -50 0 -52 16 -7 59 l32 32 7 -23 c3 -13 6 -33 7 -45z m-405 31 c38 -39 34 -54 -14 -54 -42 0 -47 8 -34 58 8 28 15 28 48 -4z"/>
 <path d="M742 600 c-66 -66 -39 -176 49 -195 119 -26 193 109 107 195 -25 25 -38 30 -78 30 -40 0 -53 -5 -78 -30z m116 -40 c26 -25 28 -57 5 -82 -33 -37 -103 -11 -103 38 0 26 35 64 60 64 9 0 26 -9 38 -20z"/>
 <path d="M520 494 c0 -3 -25 -111 -56 -240 -30 -128 -52 -238 -49 -244 4 -6 54 -10 121 -10 l114 0 0 25 c0 25 -1 25 -88 25 l-89 0 52 218 c29 119 51 220 48 225 -5 8 -53 10 -53 1z"/>
 <path d="M1067 493 c-5 -8 80 -404 88 -411 2 -2 15 0 28 4 l24 9 -45 203 c-43 191 -46 202 -68 202 -13 0 -25 -3 -27 -7z"/>
 </g>

</svg>