<!DOCTYPE svg PUBLIC "-//W3C//DTD SVG 20010904//EN" "http://www.w3.org/TR/2001/REC-SVG-20010904/DTD/svg10.dtd">
<svg version="1.0" xmlns="http://www.w3.org/2000/svg" width="128px" height="128px" viewBox="0 0 1280 1280" preserveAspectRatio="xMidYMid meet">
<g id="layer101" fill="#f46523" stroke="none">
 <path d="M554 1265 c-4 -10 38 -67 117 -161 149 -175 159 -189 159 -235 0 -41 -27 -72 -78 -90 -26 -9 -38 -8 -69 8 -42 20 -83 74 -83 109 0 17 -6 24 -20 24 -11 0 -23 -7 -27 -16 -10 -28 18 -98 56 -135 66 -67 179 -64 240 6 36 41 48 93 32 143 -6 22 -57 91 -125 172 l-115 135 127 5 c122 5 127 6 130 28 l3 22 -171 0 c-142 0 -172 -2 -176 -15z"/>
 <path d="M1150 1241 l0 -40 -147 -3 c-140 -3 -148 -4 -150 -23 -3 -31 297 -450 322 -450 19 0 20 8 23 213 l2 212 41 0 c36 0 40 2 37 23 -2 17 -10 23 -40 25 -35 3 -37 5 -40 40 -2 30 -8 38 -25 40 -21 3 -23 -1 -23 -37z m0 -246 c0 -85 -2 -155 -4 -155 -4 0 -192 267 -210 298 -6 9 18 12 103 12 l111 0 0 -155z"/>
 <path d="M487 1150 c-132 -23 -268 -96 -347 -188 -51 -60 -105 -163 -125 -238 -19 -75 -19 -223 0 -298 51 -194 217 -360 411 -411 75 -19 223 -19 298 0 217 57 398 257 423 467 l6 48 43 -40 c47 -43 68 -50 78 -23 8 20 -118 153 -145 153 -8 0 -46 -32 -83 -70 -57 -59 -66 -73 -56 -85 18 -21 25 -19 70 21 45 41 46 40 25 -41 -53 -203 -228 -357 -442 -390 l-43 -7 0 42 c0 37 -2 41 -22 38 -19 -2 -24 -10 -26 -41 l-3 -39 -42 7 c-237 37 -415 215 -452 452 l-7 42 49 3 c41 3 48 6 51 26 3 20 0 22 -48 22 l-52 0 7 43 c36 233 209 411 440 452 44 8 81 14 83 15 1 0 2 9 2 19 0 17 -21 33 -38 30 -4 -1 -29 -5 -55 -9z"/>
 <path d="M527 622 c-10 -10 -17 -32 -17 -47 0 -22 -14 -44 -56 -86 -38 -39 -55 -63 -51 -73 11 -27 31 -18 87 39 82 83 90 81 230 -60 114 -115 150 -137 150 -92 0 15 -36 58 -115 137 -90 90 -115 121 -115 142 0 14 -7 34 -16 42 -21 22 -77 20 -97 -2z m63 -48 c0 -9 -5 -14 -12 -12 -18 6 -21 28 -4 28 9 0 16 -7 16 -16z"/>
 </g>

</svg>