<!DOCTYPE svg PUBLIC "-//W3C//DTD SVG 20010904//EN" "http://www.w3.org/TR/2001/REC-SVG-20010904/DTD/svg10.dtd">
<svg version="1.0" xmlns="http://www.w3.org/2000/svg" width="128px" height="128px" viewBox="0 0 1280 1280" preserveAspectRatio="xMidYMid meet">
<g id="layer101" fill="#f46523" stroke="none">
 <path d="M2 678 l3 -603 43 -3 c41 -3 42 -4 42 -38 l0 -34 333 0 332 0 164 163 c105 104 165 157 169 148 13 -38 44 -53 93 -49 62 6 99 37 99 84 0 54 -138 484 -171 532 -28 42 -29 45 -29 175 0 146 -4 157 -56 157 -30 0 -33 3 -36 33 l-3 32 -493 3 -492 2 2 -602z m938 547 c0 -13 -52 -15 -409 -15 -225 0 -416 -3 -425 -6 -14 -6 -16 -63 -16 -545 l0 -539 -25 0 -25 0 0 560 0 560 450 0 c393 0 450 -2 450 -15z m90 -147 l0 -82 -29 34 c-25 30 -31 33 -45 21 -13 -11 -16 -35 -16 -145 0 -128 2 -135 45 -271 36 -112 45 -153 45 -212 l0 -73 -160 0 -160 0 0 -155 0 -155 -285 0 -285 0 0 560 0 560 445 0 445 0 0 -82z m3 -180 c15 -20 27 -41 27 -46 0 -5 -16 -13 -35 -19 l-35 -11 0 66 c0 36 4 62 8 57 4 -6 20 -27 35 -47z m134 -320 c50 -158 68 -228 61 -240 -11 -22 -56 -34 -77 -21 -9 6 -43 94 -78 204 -85 265 -83 244 -31 262 24 9 46 16 49 16 3 1 37 -99 76 -221z m-252 -349 c-44 -44 -97 -94 -117 -111 l-38 -30 0 111 0 111 117 0 118 0 -80 -81z"/>
 <path d="M580 1081 c0 -28 18 -31 175 -31 113 0 145 3 155 15 25 30 0 35 -166 35 -154 0 -164 -1 -164 -19z"/>
 <path d="M202 938 l3 -23 304 -3 c307 -2 337 1 324 34 -4 12 -56 14 -320 14 l-314 0 3 -22z"/>
 <path d="M203 804 c-3 -8 -1 -20 4 -25 5 -5 133 -8 319 -7 301 3 309 3 309 23 0 20 -8 20 -313 23 -277 2 -313 1 -319 -14z"/>
 <path d="M207 673 c-4 -3 -7 -15 -7 -25 0 -17 16 -18 314 -18 208 0 317 4 321 10 4 6 1 17 -5 25 -10 13 -62 15 -315 15 -166 0 -305 -3 -308 -7z"/>
 <path d="M213 533 c-7 -2 -13 -13 -13 -24 0 -18 11 -19 314 -19 208 0 317 4 321 10 4 6 1 17 -5 25 -10 13 -61 15 -309 14 -163 0 -302 -3 -308 -6z"/>
 <path d="M240 230 l0 -120 160 0 c187 0 173 -12 168 140 l-3 95 -162 3 -163 2 0 -120z m280 5 l0 -75 -115 0 -115 0 0 75 0 75 115 0 115 0 0 -75z"/>
 </g>

</svg>