<!DOCTYPE svg PUBLIC "-//W3C//DTD SVG 20010904//EN" "http://www.w3.org/TR/2001/REC-SVG-20010904/DTD/svg10.dtd">
<svg version="1.0" xmlns="http://www.w3.org/2000/svg" width="128px" height="128px" viewBox="0 0 1280 1280" preserveAspectRatio="xMidYMid meet">
<g id="layer101" fill="#f46523" stroke="none">
 <path d="M0 1012 c0 -104 6 -119 63 -149 16 -8 16 -10 -7 -23 -35 -18 -37 -31 -26 -148 16 -169 53 -217 170 -217 114 0 151 48 169 219 11 107 10 110 -11 133 l-22 23 57 -19 c88 -30 136 -104 92 -141 -51 -42 -69 -115 -81 -310 -4 -76 -2 -89 18 -125 13 -22 41 -50 63 -62 37 -21 52 -23 218 -23 l178 0 -4 148 c-9 245 -24 319 -76 366 -45 40 -12 107 67 139 47 19 80 21 101 8 11 -7 8 -16 -13 -44 -17 -23 -31 -58 -37 -94 -6 -32 -13 -73 -16 -91 -7 -42 12 -87 47 -112 24 -17 45 -20 150 -20 l121 0 -4 88 c-8 146 -25 211 -61 242 -26 21 -19 29 39 45 77 23 85 38 85 162 0 96 -1 103 -20 103 -19 0 -20 -7 -20 -89 0 -102 -7 -114 -72 -131 -36 -10 -43 -9 -64 11 -22 21 -24 30 -24 116 0 86 -1 93 -20 93 -19 0 -20 -7 -20 -93 0 -85 -2 -96 -23 -115 -24 -23 -51 -32 -29 -10 8 8 12 48 12 115 0 95 -2 103 -19 103 -17 0 -19 -9 -23 -95 -1 -52 -8 -99 -13 -104 -6 -6 -40 -21 -76 -35 l-66 -25 -31 45 c-34 48 -62 56 -94 27 -17 -15 -18 -12 -18 85 0 95 -1 102 -20 102 -19 0 -20 -7 -20 -102 0 -97 -1 -100 -18 -85 -32 29 -60 21 -94 -27 l-31 -45 -65 25 c-36 13 -67 26 -68 27 -17 22 -24 61 -24 126 0 74 -2 81 -20 81 -19 0 -20 -7 -20 -111 l0 -110 -26 20 c-34 27 -85 27 -109 1 -17 -19 -18 -19 -55 0 -46 24 -50 33 -50 126 0 67 -2 74 -20 74 -19 0 -20 -7 -20 -98z m584 -141 c16 -17 14 -19 -23 -44 -21 -14 -41 -23 -44 -20 -5 4 41 83 48 83 1 0 9 -8 19 -19z m159 -20 c14 -21 23 -41 20 -44 -3 -3 -23 6 -44 20 -37 25 -39 27 -23 44 10 11 18 19 19 19 1 0 14 -18 28 -39z m-515 17 c24 -24 13 -38 -28 -38 -26 0 -40 5 -40 13 0 18 21 37 40 37 9 0 21 -5 28 -12z m857 -18 c18 -20 17 -20 -25 -20 -42 0 -43 0 -25 20 10 11 21 20 25 20 4 0 15 -9 25 -20z m-987 -58 c-13 -16 -25 -24 -27 -19 -2 6 6 19 19 29 32 26 35 22 8 -10z m229 -8 c10 -26 -1 -22 -26 9 -24 29 -24 30 -2 18 12 -7 25 -19 28 -27z m363 4 c54 -36 69 -65 24 -48 -14 6 -47 10 -74 10 -27 0 -60 -4 -74 -10 -44 -16 -31 12 22 47 26 17 48 32 50 32 1 1 25 -14 52 -31z m-433 -24 c55 -35 35 -92 -43 -119 -35 -12 -41 -12 -60 6 -42 39 -73 6 -34 -37 37 -38 128 -26 183 24 18 16 18 15 12 -13 -21 -87 -101 -132 -170 -95 -40 21 -84 131 -57 142 4 2 15 21 23 43 10 28 25 45 49 57 36 18 58 16 97 -8z m875 -15 c10 -11 20 -37 23 -57 3 -20 10 -56 16 -79 5 -23 9 -56 9 -72 l0 -31 -75 0 c-89 0 -142 18 -150 52 -8 30 12 153 28 178 31 50 111 55 149 9z m-450 -49 c45 -13 93 -52 114 -92 18 -35 34 -145 41 -291 l5 -107 -136 0 c-182 0 -232 22 -257 113 -18 66 18 263 57 314 32 42 62 58 134 72 3 0 22 -4 42 -9z"/>
 <path d="M1085 625 c-5 -2 -31 -6 -57 -10 -39 -5 -48 -10 -48 -26 0 -16 7 -19 49 -19 65 0 111 17 111 41 0 18 -25 24 -55 14z"/>
 <path d="M480 406 c0 -64 11 -69 137 -65 119 5 175 25 181 67 4 26 -18 29 -51 8 -35 -24 -118 -38 -174 -31 -50 6 -53 8 -53 36 0 22 -5 29 -20 29 -17 0 -20 -7 -20 -44z"/>
 <path d="M82 1043 c2 -53 6 -68 18 -68 12 0 16 15 18 68 3 62 1 67 -18 67 -19 0 -21 -5 -18 -67z"/>
 <path d="M400 1050 c0 -53 2 -60 20 -60 18 0 20 7 20 60 0 53 -2 60 -20 60 -18 0 -20 -7 -20 -60z"/>
 <path d="M840 1050 c0 -53 2 -60 20 -60 18 0 20 7 20 60 0 53 -2 60 -20 60 -18 0 -20 -7 -20 -60z"/>
 <path d="M1160 1030 c0 -73 2 -80 20 -80 18 0 20 7 20 80 0 73 -2 80 -20 80 -18 0 -20 -7 -20 -80z"/>
 </g>

</svg>