<?xml version="1.0"?>
<svg xmlns="http://www.w3.org/2000/svg" height="512px" viewBox="-7 0 487 488" width="512px" class=""><g><path d="m192.5 400v-248h-48l96.503906-120 95.496094 120h-48v248zm0 0" fill="#d32144" data-original="#D32144"/><path d="m234.84375 322.339844 96.003906-96.003906 11.3125 11.316406-96.003906 96zm0 0" fill="#454545" data-original="#454545"/><path d="m257.445312 273.878906c-13.777343.003906-24.949218-11.160156-24.953124-24.9375-.003907-13.777344 11.164062-24.949218 24.941406-24.949218s24.945312 11.167968 24.945312 24.945312c-.011718 13.765625-11.167968 24.925781-24.933594 24.941406zm0-33.878906c-4.941406-.003906-8.953124 4-8.953124 8.941406s4.003906 8.949219 8.945312 8.945313c4.941406 0 8.945312-4.007813 8.941406-8.949219-.003906-4.933594-4-8.933594-8.933594-8.9375zm0 0" fill="#454545" data-original="#454545"/><path d="m319.554688 336c-13.777344 0-24.945313-11.167969-24.941407-24.945312 0-13.777344 11.171875-24.945313 24.949219-24.941407 13.777344 0 24.941406 11.171875 24.9375 24.949219-.011719 13.769531-11.175781 24.929688-24.945312 24.9375zm0-33.878906c-4.9375 0-8.941407 4.003906-8.941407 8.941406 0 4.941406 4.003907 8.945312 8.941407 8.945312 4.941406 0 8.945312-4.003906 8.945312-8.945312-.003906-4.9375-4.007812-8.9375-8.945312-8.941406zm0 0" fill="#454545" data-original="#454545"/><path d="m346.84375 458.34375 47.996094-48 11.316406 11.316406-48 47.996094zm0 0" fill="#454545" data-original="#454545"/><path d="m367.09375 419.296875c0 6.238281-5.058594 11.296875-11.296875 11.296875s-11.296875-5.058594-11.296875-11.296875 5.058594-11.296875 11.296875-11.296875 11.296875 5.058594 11.296875 11.296875zm0 0" fill="#454545" data-original="#454545"/><path d="m408.5 460.703125c0 6.238281-5.058594 11.296875-11.296875 11.296875s-11.296875-5.058594-11.296875-11.296875 5.058594-11.296875 11.296875-11.296875 11.296875 5.058594 11.296875 11.296875zm0 0" fill="#454545" data-original="#454545"/><path d="m362.84375 66.347656 47.996094-48 11.316406 11.316406-48 47.996094zm0 0" fill="#454545" data-original="#454545"/><path d="m383.09375 27.296875c0 6.238281-5.058594 11.296875-11.296875 11.296875s-11.296875-5.058594-11.296875-11.296875 5.058594-11.296875 11.296875-11.296875 11.296875 5.058594 11.296875 11.296875zm0 0" fill="#454545" data-original="#454545"/><path d="m424.5 68.703125c0 6.238281-5.058594 11.296875-11.296875 11.296875s-11.296875-5.058594-11.296875-11.296875 5.058594-11.296875 11.296875-11.296875 11.296875 5.058594 11.296875 11.296875zm0 0" fill="#454545" data-original="#454545"/><path d="m394.84375 242.34375 64-64 11.3125 11.3125-64 64zm0 0" fill="#454545" data-original="#454545"/><path d="m411.796875 214.585938c-10.660156 0-19.296875-8.644532-19.296875-19.300782s8.644531-19.296875 19.300781-19.292968c10.660157.003906 19.296875 8.644531 19.292969 19.304687-.015625 10.648437-8.648438 19.277344-19.296875 19.289063zm0-22.585938c-1.820313 0-3.296875 1.476562-3.296875 3.296875s1.476562 3.296875 3.296875 3.296875 3.296875-1.476562 3.296875-3.296875c-.007812-1.820313-1.480469-3.292969-3.296875-3.296875zm0 0" fill="#454545" data-original="#454545"/><path d="m453.203125 256c-10.65625 0-19.296875-8.640625-19.296875-19.296875s8.640625-19.296875 19.296875-19.296875 19.296875 8.640625 19.296875 19.296875c-.011719 10.652344-8.644531 19.285156-19.296875 19.296875zm0-22.585938c-1.820313 0-3.296875 1.480469-3.296875 3.300782.003906 1.820312 1.480469 3.296875 3.304688 3.292968 1.820312-.003906 3.292968-1.484374 3.289062-3.304687-.003906-1.816406-1.480469-3.289063-3.296875-3.289063zm0 0" fill="#454545" data-original="#454545"/><path d="m224.5 376h16v88h-16zm0 0" fill="#d32144" data-original="#D32144"/><path d="m440.5 72h16v16h-16zm0 0" fill="#d3d3d3" data-original="#D3D3D3"/><path d="m440.5 16h16v40h-16zm0 0" fill="#d3d3d3" data-original="#D3D3D3"/><path d="m440.5 432h16v16h-16zm0 0" fill="#d3d3d3" data-original="#D3D3D3"/><path d="m440.5 464h16v16h-16zm0 0" fill="#d3d3d3" data-original="#D3D3D3"/><path d="m256.5 432h16v16h-16zm0 0" fill="#d32144" data-original="#D32144"/><path d="m256.5 464h16v16h-16zm0 0" fill="#d32144" data-original="#D32144"/><path d="m56.5 40h16v16h-16zm0 0" fill="#d3d3d3" data-original="#D3D3D3"/><path d="m56.5 72h16v16h-16zm0 0" fill="#d3d3d3" data-original="#D3D3D3"/><path d="m184.5 456h16v16h-16zm0 0" fill="#d32144" data-original="#D32144"/><path d="m184.5 416h16v24h-16zm0 0" fill="#d32144" data-original="#D32144"/><path d="m280.5 440h16v16h-16zm0 0" fill="#d32144" data-original="#D32144"/><path d="m280.5 400h16v24h-16zm0 0" fill="#d32144" data-original="#D32144"/><path d="m2.84375 426.34375 47.996094-47.996094 11.316406 11.3125-48 47.996094zm0 0" fill="#454545" data-original="#454545"/><path d="m23.09375 387.296875c0 6.238281-5.058594 11.296875-11.296875 11.296875s-11.296875-5.058594-11.296875-11.296875 5.058594-11.296875 11.296875-11.296875 11.296875 5.058594 11.296875 11.296875zm0 0" fill="#454545" data-original="#454545"/><path d="m64.5 428.703125c0 6.238281-5.058594 11.296875-11.296875 11.296875s-11.296875-5.058594-11.296875-11.296875 5.058594-11.296875 11.296875-11.296875 11.296875 5.058594 11.296875 11.296875zm0 0" fill="#454545" data-original="#454545"/><path d="m18.84375 178.34375 64-64 11.316406 11.3125-64.003906 64.003906zm0 0" fill="#454545" data-original="#454545"/><path d="m35.796875 150.585938c-10.660156 0-19.296875-8.644532-19.296875-19.300782s8.644531-19.296875 19.300781-19.292968c10.660157.003906 19.296875 8.644531 19.292969 19.304687-.015625 10.648437-8.648438 19.277344-19.296875 19.289063zm0-22.585938c-1.820313 0-3.296875 1.476562-3.296875 3.296875s1.476562 3.296875 3.296875 3.296875 3.296875-1.476562 3.296875-3.296875c-.007812-1.820313-1.480469-3.292969-3.296875-3.296875zm0 0" fill="#454545" data-original="#454545"/><path d="m77.203125 192c-10.65625 0-19.296875-8.640625-19.296875-19.296875s8.640625-19.296875 19.296875-19.296875 19.296875 8.640625 19.296875 19.296875c-.011719 10.652344-8.644531 19.285156-19.296875 19.296875zm0-22.585938c-1.820313 0-3.296875 1.480469-3.296875 3.300782.003906 1.820312 1.480469 3.296875 3.304688 3.292968 1.820312-.003906 3.292968-1.484374 3.289062-3.304687-.003906-1.816406-1.480469-3.289063-3.296875-3.289063zm0 0" fill="#454545" data-original="#454545"/><g fill="#d3d3d3"><path d="m24.5 248h16v56h-16zm0 0" data-original="#000000" class="active-path" style="fill:#EEA0A0" data-old_color="#EA9999"/><path d="m456.5 280h16v64h-16zm0 0" data-original="#000000" class="active-path" style="fill:#EEA0A0" data-old_color="#EA9999"/><path d="m424.5 264h16v40h-16zm0 0" data-original="#000000" class="active-path" style="fill:#EEA0A0" data-old_color="#EA9999"/><path d="m128.5 56h16v16h-16zm0 0" data-original="#000000" class="active-path" style="fill:#EEA0A0" data-old_color="#EA9999"/><path d="m128.5 0h16v40h-16zm0 0" data-original="#000000" class="active-path" style="fill:#EEA0A0" data-old_color="#EA9999"/><path d="m128.5 360h16v16h-16zm0 0" data-original="#000000" class="active-path" style="fill:#EEA0A0" data-old_color="#EA9999"/><path d="m128.5 304h16v40h-16zm0 0" data-original="#000000" class="active-path" style="fill:#EEA0A0" data-old_color="#EA9999"/><path d="m304.5 64h16v32h-16zm0 0" data-original="#000000" class="active-path" style="fill:#EEA0A0" data-old_color="#EA9999"/><path d="m304.5 8h16v40h-16zm0 0" data-original="#000000" class="active-path" style="fill:#EEA0A0" data-old_color="#EA9999"/><path d="m72.5 440h16v16h-16zm0 0" data-original="#000000" class="active-path" style="fill:#EEA0A0" data-old_color="#EA9999"/><path d="m72.5 472h16v16h-16zm0 0" data-original="#000000" class="active-path" style="fill:#EEA0A0" data-old_color="#EA9999"/><path d="m56.5 248h16v16h-16zm0 0" data-original="#000000" class="active-path" style="fill:#EEA0A0" data-old_color="#EA9999"/><path d="m56.5 208h16v24h-16zm0 0" data-original="#000000" class="active-path" style="fill:#EEA0A0" data-old_color="#EA9999"/><path d="m120.5 216h16v16h-16zm0 0" data-original="#000000" class="active-path" style="fill:#EEA0A0" data-old_color="#EA9999"/></g></g> </svg>
