<?xml version="1.0" encoding="iso-8859-1"?>
<!-- Generator: Adobe Illustrator 19.0.0, SVG Export Plug-In . SVG Version: 6.00 Build 0)  -->
<svg version="1.1" id="Capa_1" xmlns="http://www.w3.org/2000/svg" xmlns:xlink="http://www.w3.org/1999/xlink" x="0px" y="0px"
	 viewBox="0 0 512 512" style="enable-background:new 0 0 512 512;" xml:space="preserve">
<path style="fill:#F8F8F8;" d="M254.601,499.005c-134.206,0.009-243.005-108.79-243.014-242.997S120.377,13.003,254.583,12.995
	s243.005,108.79,243.014,242.997V256C497.449,390.145,388.746,498.849,254.601,499.005z"/>
<g>
	<circle style="fill:#EEEEEE;" cx="254.592" cy="256" r="183.664"/>
	<path style="fill:#EEEEEE;" d="M2.564,17.21H0v-3.955h2.564c4.346,0,7.875-3.529,7.875-7.875l0,0V2.825h3.929V5.38
		C14.359,11.9,9.083,17.193,2.564,17.21z"/>
	<path style="fill:#EEEEEE;" d="M24.799,17.21h-2.529c-6.528-0.009-11.821-5.302-11.83-11.83V2.825h3.929V5.38
		c0.009,4.346,3.529,7.866,7.875,7.875h2.555V17.21z"/>
	<path style="fill:#EEEEEE;" d="M14.368,27.65h-3.929v-2.564c-0.009-4.346-3.529-7.866-7.875-7.875H0v-3.955h2.564
		c6.519,0.017,11.795,5.311,11.804,11.83V27.65z"/>
	<path style="fill:#EEEEEE;" d="M14.368,27.65h-3.929v-2.564c0.009-6.528,5.302-11.821,11.83-11.83h2.529v3.955h-2.529
		c-4.346,0.009-7.866,3.529-7.875,7.875L14.368,27.65z"/>
</g>
<g>
	<path style="fill:#75B0F4;" d="M497.597,496.902c-3.138,0-6.154-1.252-8.362-3.477l-1.808-1.808l2.79-2.799l1.817,1.808
		c3.12,2.973,8.014,2.973,11.135,0l1.808-1.808l2.799,2.799l-1.808,1.808C503.751,495.659,500.744,496.911,497.597,496.902z"/>
	<path style="fill:#75B0F4;" d="M504.977,509.175l-1.808-1.808c-4.624-4.616-4.624-12.099-0.017-16.715
		c0.009-0.009,0.009-0.009,0.017-0.017l1.808-1.808l2.799,2.799l-1.808,1.808c-3.077,3.034-3.103,7.988-0.07,11.065
		c0.026,0.026,0.043,0.052,0.07,0.07l1.808,1.817L504.977,509.175z"/>
	<path style="fill:#75B0F4;" d="M490.218,509.175l-2.79-2.79l1.808-1.817c3.068-3.077,3.068-8.058,0-11.135l-1.808-1.808l2.79-2.799
		l1.817,1.808c4.607,4.624,4.607,12.108,0,16.732L490.218,509.175z"/>
	<path style="fill:#75B0F4;" d="M504.977,509.175l-1.808-1.808c-3.077-3.068-8.058-3.068-11.135,0l-1.817,1.808l-2.79-2.79
		l1.808-1.817c4.624-4.607,12.108-4.607,16.732,0l1.808,1.817L504.977,509.175z"/>
	<path style="fill:#75B0F4;" d="M100.846,442.098H98.29v-3.955h2.555c4.355,0,7.875-3.52,7.884-7.875v-2.555h3.955v2.555
		C112.676,436.805,107.382,442.089,100.846,442.098z"/>
	<path style="fill:#75B0F4;" d="M123.115,442.098h-2.555c-6.528-0.009-11.821-5.302-11.83-11.83v-2.555h3.955v2.555
		c0,4.346,3.529,7.875,7.875,7.875h2.555V442.098z"/>
	<path style="fill:#75B0F4;" d="M112.685,452.537h-3.955v-2.564c-0.009-4.346-3.538-7.866-7.884-7.875H98.29v-3.955h2.555
		c6.536,0.009,11.83,5.294,11.839,11.83C112.685,449.973,112.685,452.537,112.685,452.537z"/>
	<path style="fill:#75B0F4;" d="M112.685,452.537h-3.955v-2.564c0.009-6.528,5.302-11.821,11.83-11.83h2.555v3.955h-2.555
		c-4.346,0.009-7.866,3.529-7.875,7.875V452.537z"/>
</g>
<g>
	<path style="fill:#FFC335;" d="M429.051,376.725h-2.555v-3.955h2.555c4.346,0,7.875-3.529,7.875-7.875v-2.555h3.955v2.555
		C440.872,371.423,435.579,376.716,429.051,376.725z"/>
	<path style="fill:#FFC335;" d="M451.32,376.725h-2.608c-6.528-0.009-11.821-5.302-11.83-11.83v-2.555h3.955v2.555
		c0.009,4.346,3.529,7.866,7.875,7.875h2.608V376.725z"/>
	<path style="fill:#FFC335;" d="M440.881,387.164h-3.955v-2.608c-0.009-4.346-3.529-7.866-7.875-7.875h-2.555v-3.955h2.555
		c6.545,0.009,11.839,5.32,11.83,11.865c0,0.017,0,0.035,0,0.052V387.164z"/>
	<path style="fill:#FFC335;" d="M440.881,387.164h-3.955v-2.608c0.009-6.528,5.302-11.821,11.83-11.83h2.608v3.955h-2.608
		c-4.346,0.009-7.866,3.529-7.875,7.875V387.164z"/>
	<path style="fill:#FFC335;" d="M414.37,208.193c-4.885,0-8.849-3.964-8.849-8.849s3.964-8.849,8.849-8.849
		c4.885,0,8.849,3.964,8.849,8.849C423.21,204.23,419.255,208.185,414.37,208.193z M414.37,194.451c-2.703,0-4.894,2.19-4.894,4.894
		c0,2.703,2.19,4.894,4.894,4.894s4.894-2.19,4.894-4.894l0,0c0.009-2.703-2.182-4.894-4.885-4.902h-0.009V194.451z"/>
</g>
<path style="fill:#75B0F4;" d="M272.924,424.279c-6.902,0-12.499-5.598-12.499-12.499s5.598-12.499,12.499-12.499
	c6.902,0,12.499,5.598,12.499,12.499l0,0C285.414,418.682,279.825,424.271,272.924,424.279z M272.924,403.236
	c-4.72,0-8.544,3.825-8.544,8.544c0,4.72,3.825,8.544,8.544,8.544c4.72,0,8.544-3.825,8.544-8.544
	C281.468,407.06,277.643,403.236,272.924,403.236L272.924,403.236z"/>
<g>
	<path style="fill:#FFC335;" d="M91.571,312.073c-4.885,0-8.849-3.964-8.849-8.849c0-4.885,3.964-8.849,8.849-8.849
		c4.885,0,8.849,3.964,8.849,8.849C100.411,308.109,96.456,312.064,91.571,312.073z M91.571,298.331
		c-2.703,0-4.894,2.19-4.894,4.894s2.19,4.894,4.894,4.894c2.703,0,4.894-2.19,4.894-4.894l0,0
		C96.456,300.521,94.275,298.339,91.571,298.331z"/>
	<path style="fill:#FFC335;" d="M247.725,41.374c-4.885,0-8.849-3.964-8.849-8.849s3.964-8.849,8.849-8.849s8.849,3.964,8.849,8.849
		l0,0C256.565,37.411,252.61,41.366,247.725,41.374z M247.725,27.632c-2.703,0-4.894,2.19-4.894,4.894
		c0,2.703,2.19,4.894,4.894,4.894s4.894-2.19,4.894-4.894l0,0C252.61,29.823,250.428,27.641,247.725,27.632z"/>
	<path style="fill:#FFC335;" d="M68.424,210.575c-2.547,0-4.963-1.147-6.571-3.12c-1.695-1.938-4.642-2.13-6.571-0.435
		c-0.156,0.13-0.296,0.278-0.435,0.435c-3.19,3.633-8.727,3.981-12.351,0.791c-0.278-0.243-0.539-0.513-0.791-0.791
		c-1.704-1.938-4.65-2.13-6.589-0.426c-0.148,0.13-0.296,0.278-0.426,0.426c-1.608,1.973-4.024,3.12-6.571,3.12l0,0
		c-2.547,0.009-4.963-1.139-6.571-3.12l3.068-2.503c0.852,1.052,2.13,1.66,3.477,1.669l0,0c1.347-0.009,2.625-0.617,3.477-1.669
		c3.19-3.633,8.727-3.981,12.351-0.791c0.278,0.243,0.539,0.513,0.791,0.791c1.704,1.938,4.65,2.13,6.589,0.426
		c0.148-0.13,0.296-0.278,0.426-0.426c3.19-3.633,8.727-3.981,12.351-0.791c0.278,0.243,0.539,0.513,0.791,0.791
		c1.704,1.938,4.65,2.121,6.589,0.417c0.148-0.13,0.287-0.269,0.417-0.417l3.068,2.503
		C73.344,209.419,70.954,210.566,68.424,210.575z"/>
</g>
<path style="fill:#75B0F4;" d="M505.472,43.765c-2.547,0-4.963-1.147-6.571-3.12c-1.704-1.938-4.65-2.121-6.589-0.417
	c-0.148,0.13-0.287,0.269-0.417,0.417c-1.608,1.973-4.024,3.12-6.571,3.12l0,0c-2.547,0.009-4.963-1.139-6.571-3.12
	c-1.712-1.938-4.668-2.121-6.597-0.417c-0.148,0.13-0.287,0.269-0.417,0.417c-3.19,3.633-8.709,3.99-12.343,0.8
	c-0.287-0.252-0.556-0.522-0.8-0.8l3.068-2.495c1.712,1.938,4.668,2.121,6.597,0.417c0.148-0.13,0.287-0.269,0.417-0.417
	c3.147-3.633,8.631-4.024,12.265-0.878c0.313,0.269,0.608,0.565,0.878,0.878c0.852,1.043,2.13,1.652,3.477,1.66l0,0
	c1.347-0.009,2.625-0.617,3.477-1.66c3.147-3.633,8.631-4.024,12.265-0.878c0.313,0.269,0.608,0.565,0.878,0.878
	c1.712,1.938,4.668,2.121,6.597,0.417c0.148-0.13,0.287-0.269,0.417-0.417L512,40.644C510.401,42.609,508.002,43.756,505.472,43.765
	z"/>
<path style="fill:#FFC335;" d="M331.917,456.909c-2.547,0.009-4.963-1.139-6.571-3.12c-1.695-1.938-4.633-2.138-6.571-0.443
	c-0.156,0.139-0.304,0.287-0.443,0.443c-3.19,3.633-8.727,3.981-12.352,0.791c-0.278-0.243-0.539-0.513-0.791-0.791
	c-1.686-1.938-4.624-2.13-6.563-0.443c-0.156,0.139-0.304,0.287-0.443,0.443c-3.19,3.633-8.727,3.981-12.352,0.791
	c-0.278-0.243-0.539-0.513-0.791-0.791l3.06-2.503c1.712,1.938,4.668,2.121,6.597,0.417c0.148-0.13,0.287-0.269,0.417-0.417
	c3.19-3.633,8.71-3.99,12.343-0.8c0.287,0.252,0.556,0.522,0.8,0.8c1.712,1.938,4.668,2.121,6.597,0.417
	c0.148-0.13,0.287-0.269,0.417-0.417c3.147-3.625,8.631-4.016,12.265-0.869c0.313,0.269,0.6,0.565,0.869,0.869
	c1.712,1.938,4.668,2.121,6.597,0.417c0.148-0.13,0.287-0.269,0.417-0.417l3.068,2.503
	C336.88,455.762,334.464,456.909,331.917,456.909z"/>
<g>
	<path style="fill:#75B0F4;" d="M127.6,158.553L127.6,158.553c-1.643,0-3.277-0.322-4.798-0.947l1.495-3.659
		c1.052,0.426,2.173,0.652,3.303,0.652V158.553z M132.442,157.579l-1.53-3.651c1.052-0.443,1.999-1.078,2.808-1.886l2.799,2.79
		C135.354,156.006,133.971,156.945,132.442,157.579z M118.673,154.885c-1.182-1.165-2.121-2.547-2.755-4.077l3.642-1.53
		c0.443,1.052,1.087,1.999,1.895,2.799L118.673,154.885z M139.256,150.739l-3.659-1.512c0.435-1.052,0.661-2.173,0.661-3.312
		l3.164-0.104h0.791C140.23,147.496,139.899,149.174,139.256,150.739z M114.918,145.975v-0.061c0-1.634,0.313-3.251,0.921-4.763
		l3.668,1.486c-0.426,1.043-0.643,2.156-0.635,3.277L114.918,145.975z M135.545,142.498c-0.452-1.043-1.095-1.99-1.912-2.79
		l2.773-2.825c1.182,1.156,2.121,2.538,2.773,4.059L135.545,142.498z M121.368,139.813l-2.816-2.781
		c1.173-1.165,2.564-2.086,4.094-2.721l1.539,3.642c-1.043,0.435-1.999,1.06-2.799,1.86H121.368z M130.808,137.857
		c-1.034-0.417-2.138-0.635-3.251-0.635l-0.078-3.407v-0.539l0,0c1.634-0.017,3.26,0.278,4.789,0.869L130.808,137.857z"/>
	<path style="fill:#75B0F4;" d="M425.062,458.969L425.062,458.969c-1.643,0-3.277-0.322-4.798-0.947l1.504-3.651
		c1.043,0.426,2.164,0.643,3.294,0.643L425.062,458.969z M429.894,457.996l-1.53-3.651c1.052-0.435,2.017-1.078,2.816-1.886
		l2.799,2.799C432.815,456.431,431.424,457.361,429.894,457.996z M416.135,455.31c-1.182-1.165-2.121-2.555-2.764-4.085l3.651-1.53
		c0.443,1.052,1.087,1.999,1.895,2.799L416.135,455.31z M436.709,451.155l-3.651-1.512c0.435-1.052,0.652-2.173,0.652-3.312
		l3.955-0.13v0.156C437.665,448,437.343,449.634,436.709,451.155z M412.693,446.357h-0.304c-0.009-1.651,0.313-3.286,0.93-4.815
		l3.659,1.486c-0.417,1.043-0.635,2.156-0.635,3.277L412.693,446.357z M433.023,442.88c-0.452-1.052-1.104-1.999-1.921-2.799
		l2.773-2.825c1.191,1.156,2.138,2.538,2.781,4.068L433.023,442.88z M418.847,440.273l-2.816-2.781
		c1.165-1.182,2.547-2.121,4.068-2.764l1.547,3.642C420.594,438.812,419.638,439.456,418.847,440.273z M428.278,438.308
		c-1.034-0.417-2.138-0.626-3.251-0.626l-0.096-3.955h0.096c1.617,0,3.225,0.304,4.729,0.913L428.278,438.308z"/>
	<path style="fill:#75B0F4;" d="M425.062,106.974L425.062,106.974c-1.643,0-3.277-0.313-4.798-0.939l1.504-3.659
		c1.043,0.426,2.164,0.643,3.294,0.643L425.062,106.974z M429.894,106.009l-1.521-3.651c1.043-0.443,1.999-1.078,2.799-1.886
		l2.808,2.79C432.815,104.436,431.424,105.374,429.894,106.009z M416.126,103.314c-1.173-1.165-2.112-2.547-2.755-4.077l3.651-1.53
		c0.443,1.052,1.087,1.999,1.895,2.799L416.126,103.314z M436.709,99.168l-3.651-1.512c0.435-1.052,0.652-2.182,0.652-3.32
		l3.955-0.122v0.113C437.674,95.987,437.343,97.63,436.709,99.168z M412.371,94.405v-0.078c0-1.634,0.313-3.251,0.93-4.763
		l3.668,1.495c-0.426,1.034-0.643,2.147-0.643,3.268L412.371,94.405z M432.997,90.928c-0.443-1.043-1.095-1.999-1.904-2.79
		l2.764-2.825c1.191,1.156,2.13,2.538,2.781,4.068L432.997,90.928z M418.829,88.242l-2.816-2.781
		c1.165-1.182,2.547-2.121,4.068-2.764l1.547,3.642c-1.043,0.443-1.991,1.087-2.781,1.904H418.829z M428.26,86.287
		c-1.034-0.417-2.138-0.635-3.251-0.635l-0.087-3.955h0.087c1.617,0,3.225,0.313,4.728,0.913L428.26,86.287z"/>
</g>
<path style="fill:#FFC335;" d="M29.318,489.548L29.318,489.548c-1.643,0-3.277-0.322-4.798-0.947l1.504-3.659
	c1.043,0.435,2.164,0.652,3.294,0.652V489.548z M34.151,488.575l-1.521-3.651c1.052-0.435,2.008-1.078,2.808-1.886l2.799,2.799
	C37.063,487.01,35.681,487.94,34.151,488.575z M20.392,485.889c-1.182-1.165-2.121-2.555-2.764-4.085l3.694-1.547
	c0.443,1.052,1.087,1.999,1.895,2.799L20.392,485.889z M40.966,481.743l-3.651-1.486c0.435-1.052,0.652-2.173,0.652-3.312
	l3.955-0.165v0.122C41.922,478.561,41.6,480.204,40.966,481.743z M16.628,476.971v-0.061c0-1.634,0.313-3.251,0.93-4.763
	l3.668,1.486c-0.426,1.043-0.643,2.156-0.643,3.277L16.628,476.971z M37.254,473.494c-0.443-1.052-1.095-1.999-1.912-2.799
	l2.773-2.825c1.182,1.165,2.13,2.547,2.781,4.068L37.254,473.494z M23.086,470.799l-2.816-2.773c1.156-1.182,2.538-2.13,4.068-2.773
	l1.547,3.642c-1.043,0.452-1.982,1.104-2.781,1.912L23.086,470.799z M32.517,468.844c-1.034-0.417-2.138-0.626-3.251-0.626
	l-0.087-3.955h0.087c1.617,0,3.225,0.304,4.729,0.913L32.517,468.844z"/>
<g>
	<rect x="37.967" y="52.327" style="fill:#75B0F4;" width="3.955" height="18.705"/>
	<rect x="30.596" y="59.697" style="fill:#75B0F4;" width="18.705" height="3.955"/>
</g>
<path style="fill:#DDDDDD;" d="M359.193,236.877v-82.575c-33.1-14.09-70.676-13.116-103.001,2.66
	c-29.032,14.168-62.435,16.48-93.136,6.45v54.152c-8.866-0.861-17.61-2.695-26.076-5.459v82.575
	c8.466,2.764,17.21,4.598,26.076,5.459v42.348c30.701,10.039,64.104,7.727,93.136-6.441c32.326-15.776,69.902-16.75,103.001-2.66
	v-82.601c-8.353-3.642-17.106-6.284-26.076-7.875v-13.855C342.087,230.628,350.84,233.253,359.193,236.877z"/>
<path style="fill:#02C88B;" d="M176.111,246.021c30.701,10.031,64.104,7.719,93.136-6.45l0,0
	c32.317-15.794,69.893-16.776,102.993-2.695v-82.575c-33.091-14.09-70.676-13.116-102.993,2.66l0,0
	c-29.032,14.168-62.435,16.48-93.136,6.45L176.111,246.021L176.111,246.021z"/>
<g>
	<path style="fill:#FFFFFF;" d="M214.852,254.07c-13.368,0.043-26.65-2.043-39.358-6.18c-0.817-0.261-1.365-1.026-1.356-1.877
		v-82.575c-0.009-1.087,0.861-1.973,1.947-1.982c0.226,0,0.452,0.035,0.661,0.104c30.205,9.805,63.044,7.536,91.615-6.328
		c32.856-16.028,71.049-17.01,104.696-2.712c0.721,0.322,1.182,1.034,1.182,1.817v82.575c0,1.087-0.878,1.973-1.973,1.973
		c-0.278,0-0.548-0.061-0.8-0.165c-32.552-13.847-69.502-12.89-101.298,2.608C252.984,249.855,234.035,254.218,214.852,254.07z
		 M178.093,244.579c29.849,9.309,62.122,6.893,90.25-6.762c31.917-15.55,68.911-16.967,101.924-3.894v-78.307
		c-32.283-13.316-68.72-12.178-100.116,3.12c-28.667,13.933-61.531,16.576-92.058,7.388V244.579z"/>
	<path style="fill:#FFFFFF;" d="M214.956,242.892c-4.702-0.017-9.405-0.304-14.073-0.869c-1.078-0.104-1.869-1.069-1.764-2.147
		c0.009-0.061,0.017-0.113,0.026-0.174c0.139-0.73,0.217-1.469,0.226-2.216c-0.026-6.632-5.398-12.004-12.03-12.021
		c-0.174,0.026-0.339,0.052-0.513,0.061c-0.539,0.017-1.069-0.174-1.46-0.548c-0.391-0.374-0.617-0.887-0.617-1.426v-30.935
		c0-0.539,0.226-1.06,0.617-1.434c0.391-0.374,0.921-0.565,1.46-0.548l0.461,0.052l0,0c6.171,0.017,11.343-4.659,11.952-10.804
		c0.139-1.069,1.095-1.834,2.164-1.738c24.59,2.668,49.423-1.773,71.562-12.803c23.486-11.613,50.275-14.742,75.804-8.857
		c0.548,0.122,1.026,0.469,1.304,0.956c0.269,0.487,0.33,1.069,0.148,1.599c-2.19,6.189,1.052,12.986,7.249,15.176
		c1.33,0.469,2.729,0.704,4.137,0.678c1.087,0,1.973,0.887,1.973,1.973l0,0v28.684c0,1.095-0.878,1.973-1.973,1.982
		c-6.128,0.017-11.265,4.633-11.917,10.726c-0.061,0.539-0.348,1.034-0.782,1.365c-0.435,0.33-0.991,0.461-1.53,0.365
		c-7.875-1.434-15.854-2.173-23.86-2.199c-20.14-0.156-40.027,4.459-58.029,13.481C249.803,239.085,232.479,243.066,214.956,242.892
		z M203.326,238.346c20.731,2.286,41.679-1.399,60.375-10.63c18.566-9.301,39.071-14.073,59.836-13.907
		c7.571,0.017,15.133,0.661,22.599,1.921c1.565-6.423,6.936-11.222,13.499-12.056v-24.972c-8.014-1.008-14.029-7.823-14.038-15.898
		c0.009-0.982,0.104-1.956,0.304-2.912c-24.034-5.111-49.093-1.956-71.119,8.944c-22.243,11.109-47.163,15.75-71.919,13.386
		c-1.521,6.771-7.249,11.786-14.168,12.378v26.946c8.275,0.713,14.638,7.64,14.646,15.95
		C203.352,237.79,203.343,238.068,203.326,238.346z"/>
	<path style="fill:#FFFFFF;" d="M276.261,215.191h-8.527c-4.216-0.009-7.632-3.425-7.632-7.64v-0.591
		c-0.07-1.095,0.756-2.034,1.843-2.112c1.095-0.07,2.034,0.756,2.112,1.843c0.009,0.087,0.009,0.174,0,0.261v0.591
		c0,2.034,1.643,3.677,3.677,3.685h8.527c2.034-0.009,3.677-1.652,3.677-3.685v-4.164c0-2.034-1.643-3.677-3.677-3.685h-9.231
		c-4.216,0-7.632-3.416-7.64-7.632v-4.468c0.009-4.216,3.425-7.632,7.64-7.64h8.37c4.216,0.009,7.632,3.425,7.64,7.64
		c-0.07,1.095-1.017,1.921-2.112,1.843c-0.991-0.07-1.782-0.852-1.843-1.843c0-2.034-1.651-3.685-3.685-3.685h-8.37
		c-2.034,0-3.685,1.652-3.685,3.685v4.468c0.009,2.034,1.652,3.677,3.685,3.677h9.231c4.216,0.009,7.632,3.425,7.632,7.64v4.164
		C283.893,211.766,280.477,215.182,276.261,215.191z"/>
	<path style="fill:#FFFFFF;" d="M271.654,222.24c-1.095,0-1.982-0.887-1.982-1.982l0,0v-43.973c0.07-1.095,1.017-1.921,2.112-1.843
		c0.991,0.07,1.782,0.852,1.843,1.843v43.973c0.009,1.087-0.878,1.973-1.964,1.982H271.654z"/>
</g>
<path style="fill:#02C88B;" d="M150.008,294.715c30.701,10.031,64.104,7.719,93.136-6.45l0,0
	c32.317-15.776,69.902-16.75,102.993-2.66v-82.627c-33.091-14.09-70.676-13.125-102.993,2.66l0,0
	c-29.032,14.168-62.435,16.48-93.136,6.441V294.715z"/>
<g>
	<path style="fill:#FFFFFF;" d="M188.74,302.764c-13.36,0.043-26.65-2.043-39.358-6.171c-0.808-0.269-1.356-1.026-1.356-1.878
		V212.14c0-1.095,0.887-1.982,1.982-1.982c0.209,0,0.426,0.035,0.626,0.104c30.205,9.813,63.044,7.545,91.615-6.328
		c32.856-16.02,71.049-17.002,104.688-2.695c0.713,0.313,1.173,1.026,1.173,1.808v82.575c0,1.095-0.887,1.982-1.982,1.982
		c-0.269,0-0.539-0.052-0.791-0.165c-32.543-13.847-69.502-12.899-101.289,2.608C226.864,298.565,207.915,302.929,188.74,302.764z
		 M151.982,293.272c29.849,9.309,62.131,6.893,90.259-6.762c31.917-15.559,68.902-16.967,101.915-3.885v-78.316
		c-32.283-13.316-68.72-12.178-100.107,3.12c-28.675,13.942-61.54,16.576-92.067,7.388V293.272z"/>
	<path style="fill:#FFFFFF;" d="M188.853,291.586c-4.702,0-9.405-0.269-14.081-0.817c-0.539-0.07-1.034-0.356-1.356-0.8
		c-0.33-0.435-0.461-0.991-0.356-1.53c0.148-0.73,0.217-1.469,0.226-2.208c0-6.649-5.372-12.047-12.021-12.073
		c-0.174,0.035-0.356,0.052-0.53,0.061c-0.539,0.026-1.06-0.174-1.443-0.548c-0.391-0.374-0.608-0.887-0.608-1.426V241.31
		c0-0.539,0.217-1.06,0.608-1.434s0.921-0.565,1.46-0.539l0.461,0.043l0,0c6.171,0.017,11.343-4.659,11.952-10.804
		c0.148-1.06,1.095-1.825,2.164-1.738c24.59,2.668,49.423-1.773,71.562-12.803c23.486-11.613,50.275-14.742,75.804-8.857
		c1.069,0.235,1.738,1.295,1.504,2.364c-0.017,0.061-0.035,0.13-0.052,0.191c-2.19,6.189,1.052,12.986,7.249,15.176
		c1.33,0.469,2.729,0.695,4.129,0.678c1.095,0,1.973,0.878,1.982,1.973v28.684c0,1.087-0.887,1.973-1.973,1.973h-0.009
		c-6.128,0.017-11.256,4.633-11.908,10.726c-0.061,0.548-0.348,1.034-0.782,1.365c-0.443,0.33-1,0.461-1.538,0.365
		c-7.866-1.434-15.854-2.173-23.851-2.199c-20.14-0.156-40.027,4.468-58.029,13.481C223.718,287.77,206.385,291.759,188.853,291.586
		z M177.223,287.04c20.731,2.295,41.679-1.399,60.375-10.63c18.566-9.301,39.071-14.064,59.836-13.907
		c7.571,0.017,15.133,0.661,22.599,1.921c1.565-6.423,6.936-11.221,13.499-12.056v-24.972c-8.005-1.008-14.02-7.814-14.029-15.889
		c0-0.982,0.104-1.956,0.304-2.912c-24.034-5.111-49.093-1.964-71.119,8.935c-22.243,11.117-47.163,15.759-71.919,13.395
		c-1.521,6.771-7.258,11.769-14.168,12.369v26.946c8.284,0.721,14.638,7.649,14.646,15.959
		C177.249,286.492,177.241,286.761,177.223,287.04z"/>
	<path style="fill:#FFFFFF;" d="M250.15,263.884h-8.518c-4.216,0-7.632-3.416-7.64-7.632v-0.6c0.07-1.095,1.017-1.921,2.112-1.843
		c0.991,0.07,1.782,0.852,1.843,1.843v0.6c0.009,2.034,1.652,3.677,3.685,3.677h8.518c2.034,0,3.677-1.643,3.685-3.677v-4.172
		c-0.009-2.034-1.652-3.677-3.685-3.677h-9.231c-4.216-0.009-7.623-3.425-7.632-7.64v-4.468c0.009-4.216,3.416-7.623,7.632-7.632
		h8.379c4.216,0.009,7.623,3.416,7.632,7.632c0.07,1.095-0.756,2.034-1.843,2.112c-1.087,0.078-2.034-0.756-2.112-1.843
		c-0.009-0.087-0.009-0.174,0-0.261c-0.009-2.025-1.652-3.668-3.677-3.677h-8.379c-2.025,0.009-3.668,1.652-3.677,3.677v4.468
		c0,2.034,1.643,3.677,3.677,3.685h9.231c4.216,0,7.632,3.416,7.64,7.632v4.172C257.782,260.468,254.366,263.884,250.15,263.884z"/>
	<path style="fill:#FFFFFF;" d="M245.578,270.933c-1.087,0-1.973-0.887-1.973-1.973l0,0v-43.982c0.07-1.095,1.017-1.921,2.112-1.843
		c0.991,0.07,1.782,0.852,1.843,1.843v43.982C247.551,270.055,246.673,270.933,245.578,270.933z"/>
</g>
<path style="fill:#02C88B;" d="M176.111,342.521c30.701,10.039,64.104,7.727,93.136-6.441l0,0
	c32.317-15.776,69.902-16.75,102.993-2.66v-82.636c-33.091-14.09-70.676-13.116-102.993,2.66l0,0
	c-29.032,14.168-62.435,16.48-93.136,6.45L176.111,342.521L176.111,342.521z"/>
<g>
	<path style="fill:#FFFFFF;" d="M214.843,350.579c-13.36,0.043-26.641-2.043-39.349-6.18c-0.817-0.261-1.365-1.026-1.356-1.878
		v-82.575c0-0.635,0.304-1.234,0.817-1.608c0.504-0.356,1.147-0.461,1.738-0.269c30.205,9.805,63.044,7.536,91.615-6.328
		c32.874-16.037,71.084-17.019,104.731-2.695c0.713,0.313,1.182,1.026,1.182,1.808v82.575c0,1.087-0.878,1.973-1.973,1.973
		c-0.278,0-0.548-0.061-0.8-0.165c-32.552-13.838-69.502-12.882-101.298,2.608C252.966,346.372,234.026,350.735,214.843,350.579z
		 M178.093,341.087c29.849,9.318,62.122,6.893,90.25-6.771c31.917-15.55,68.911-16.958,101.924-3.885v-78.307
		c-32.283-13.316-68.72-12.178-100.116,3.12c-28.667,13.933-61.531,16.567-92.058,7.388V341.087z"/>
	<path style="fill:#FFFFFF;" d="M214.956,339.444c-4.702-0.017-9.405-0.304-14.073-0.869c-1.078-0.104-1.869-1.069-1.764-2.147
		c0.009-0.061,0.017-0.113,0.026-0.174c0.139-0.73,0.217-1.469,0.226-2.216c0-6.649-5.38-12.047-12.03-12.065
		c-0.183,0.026-0.356,0.052-0.539,0.061c-0.539,0.026-1.06-0.174-1.443-0.556c-0.391-0.374-0.608-0.878-0.608-1.417v-30.935
		c0-0.539,0.217-1.052,0.608-1.426c0.374-0.391,0.904-0.591,1.443-0.556l0.487,0.052l0,0c6.171,0.017,11.343-4.659,11.952-10.804
		c0.148-1.06,1.095-1.825,2.164-1.738c24.59,2.66,49.423-1.782,71.562-12.803c23.486-11.613,50.275-14.742,75.804-8.857
		c0.548,0.113,1.026,0.461,1.295,0.947c0.278,0.487,0.339,1.078,0.156,1.608c-2.182,6.189,1.06,12.986,7.258,15.168
		c1.33,0.469,2.721,0.695,4.129,0.678c1.095,0.009,1.973,0.887,1.973,1.982v28.684c0,1.095-0.878,1.973-1.973,1.982
		c-6.128,0.017-11.265,4.633-11.917,10.726c-0.061,0.548-0.348,1.034-0.782,1.365c-0.443,0.322-0.991,0.452-1.53,0.365
		c-7.875-1.434-15.854-2.173-23.86-2.199c-20.14-0.156-40.027,4.459-58.029,13.481C249.803,335.602,232.488,339.601,214.956,339.444
		z M203.326,334.898c20.731,2.295,41.679-1.391,60.375-10.63c18.566-9.301,39.071-14.073,59.836-13.907
		c7.571,0.017,15.133,0.661,22.599,1.921c1.565-6.423,6.936-11.222,13.499-12.056v-25.025c-8.014-1-14.029-7.814-14.038-15.889
		c0.009-0.982,0.104-1.956,0.304-2.912c-24.034-5.111-49.093-1.956-71.119,8.944c-22.243,11.108-47.163,15.75-71.919,13.386
		c-1.521,6.771-7.249,11.786-14.168,12.378v26.946c8.275,0.713,14.638,7.64,14.646,15.95c0.009,0.296,0,0.574-0.017,0.852
		L203.326,334.898z"/>
	<path style="fill:#FFFFFF;" d="M276.261,311.699h-8.527c-4.216-0.009-7.632-3.425-7.632-7.64v-0.591
		c-0.07-1.095,0.756-2.034,1.843-2.112c1.095-0.07,2.034,0.756,2.112,1.843c0.009,0.087,0.009,0.174,0,0.261v0.591
		c0,2.034,1.643,3.677,3.677,3.685h8.527c2.034-0.009,3.677-1.651,3.677-3.685v-4.164c0-2.034-1.643-3.677-3.677-3.685h-9.231
		c-4.216,0-7.632-3.416-7.64-7.632v-4.468c0.009-4.216,3.425-7.632,7.64-7.64h8.37c4.216,0.009,7.632,3.425,7.64,7.64
		c-0.07,1.095-1.017,1.921-2.112,1.843c-0.991-0.07-1.782-0.852-1.843-1.843c0-2.034-1.651-3.685-3.685-3.685h-8.37
		c-2.034,0-3.685,1.651-3.685,3.685v4.476c0.009,2.034,1.652,3.677,3.685,3.677h9.231c4.216,0.009,7.632,3.425,7.632,7.64v4.164
		C283.893,308.274,280.477,311.69,276.261,311.699z"/>
	<path style="fill:#FFFFFF;" d="M271.654,318.748c-1.095,0-1.982-0.887-1.982-1.982l0,0v-43.973c0.07-1.095,1.017-1.921,2.112-1.843
		c0.991,0.07,1.782,0.852,1.843,1.843v43.973c0.009,1.087-0.878,1.973-1.964,1.982H271.654z"/>
</g>
<g>
</g>
<g>
</g>
<g>
</g>
<g>
</g>
<g>
</g>
<g>
</g>
<g>
</g>
<g>
</g>
<g>
</g>
<g>
</g>
<g>
</g>
<g>
</g>
<g>
</g>
<g>
</g>
<g>
</g>
</svg>
